<?xml version="1.0" encoding="UTF-8"?>
<svg id="Calque_2" data-name="Calque 2" xmlns="http://www.w3.org/2000/svg" viewBox="0 0 96.67 73.11">
  <defs>
    <style>
      .cls-1 {
        fill: #f2f2f2;
        opacity: .59;
      }

      .cls-2 {
        fill: #e073aa;
      }

      .cls-2, .cls-3, .cls-4, .cls-5, .cls-6, .cls-7, .cls-8 {
        stroke: #1d1d1b;
      }

      .cls-2, .cls-3, .cls-4, .cls-5, .cls-7, .cls-8 {
        stroke-miterlimit: 10;
      }

      .cls-3 {
        fill: #3d3d3c;
      }

      .cls-4 {
        fill: #66b3e4;
      }

      .cls-9 {
        fill: #1d1d1b;
      }

      .cls-5 {
        fill: #fece5b;
      }

      .cls-10, .cls-8 {
        fill: #f7f6f6;
      }

      .cls-6 {
        stroke-linecap: round;
        stroke-linejoin: round;
      }

      .cls-6, .cls-7 {
        fill: #fff;
      }
    </style>
  </defs>
  <g id="telephone_bras" data-name="telephone bras">
    <g>
      <g>
        <path class="cls-5" d="M95.55,33.32l.59,10.7-18.12-.3c-4.35-.07-8.75.05-13.1.37l-15.55,1.14-7.12.52-.59-10.71,5.12-.38,16.31-1.21c4.28-.31,8.59-.45,12.87-.39l19.59.27Z"/>
        <path class="cls-7" d="M46.83,45.46c-.54,1.33-1.54,2.59-3.15,3.66-.55.37-1.09.65-1.61.87l-1.12-20.36c1,1.27,3.17,4.04,3.9,5.24,1.61,2.67,3.48,6.92,1.99,10.59Z"/>
        <path class="cls-6" d="M6.35,32.24l.95,17.19c-1.16.26-4.26.47-5.11-1.17-.92-1.76,1.47-4.28,1.47-4.28,0,0-1.99.38-2.96-1.81-.97-2.2,1.99-3.53,1.99-3.53,0,0-1.99-.43-1.99-3.42,0-1.38,2.71-2.34,5.65-2.98Z"/>
        <path class="cls-6" d="M2.69,38.64s1.12.91,2.29.48"/>
        <path class="cls-6" d="M3.65,43.99s1.32,1.02,2.29.37"/>
      </g>
      <g>
        <path class="cls-3" d="M39.84,13.34c-.16-2.99-3.15-5.32-6.64-5.18l-21.85.86c-3.5.14-6.22,2.69-6.06,5.67l.82,15.33.92,17.19.85,15.8c.16,2.99,3.15,5.31,6.63,5.18l21.86-.86c3.48-.14,6.21-2.69,6.06-5.68l-2.6-48.31ZM40.28,63.86c-.12.19-.26.37-.41.54-.87.94-2.19,1.57-3.68,1.63l-21.63.85c-1.74.07-3.32-.64-4.28-1.78-.18-.22-.33-.44-.46-.68,0,0-.01,0-.01-.01-.27-.49-.43-1.02-.47-1.59l-.88-16.47h0s-.9-16.63-.9-16.63l-.8-14.95c-.13-2.34,2.01-4.34,4.75-4.45l21.63-.85c1.41-.06,2.71.4,3.66,1.18.22.18.42.38.61.6.55.65.89,1.43.94,2.28l2.58,48.05c.05.83-.2,1.61-.65,2.28Z"/>
        <path class="cls-4" d="M40.94,61.58c.05.83-.2,1.61-.65,2.28-.12.19-.26.37-.41.54-.87.94-2.19,1.57-3.68,1.63l-21.63.85c-1.74.07-3.32-.64-4.28-1.78-.18-.22-.33-.44-.46-.68,0,0-.01,0-.01-.01-.26-.49-.42-1.02-.46-1.59l-.89-16.47h0s-.89-16.62-.89-16.62h0s-.81-14.96-.81-14.96c-.13-2.34,2.01-4.34,4.75-4.45l21.63-.85c1.41-.06,2.71.4,3.66,1.18.22.18.42.38.61.6.55.65.89,1.43.94,2.28l2.58,48.05Z"/>
      </g>
      <rect class="cls-1" x="9.8" y="23.66" width="27.61" height="26.65" rx="3.47" ry="3.47" transform="translate(-1.81 1.22) rotate(-2.86)"/>
      <g>
        <path class="cls-9" d="M11.64,28.18l.02.03v.24s-.96.05-.96.05v-.45s-.08-1.06-.08-1.06l.96-.05.02.03v.24s-.37,0-.37,0l-.27.02v.36s.27,0,.27,0l.25-.02.02.02v.24s-.28,0-.28,0h-.24s0,.18,0,.18l.02.23h.26s.37-.04.37-.04Z"/>
        <path class="cls-9" d="M12.93,28l.03.37-.32.02-.51-.71h-.02s.01.32.01.32l.03.41h-.27s0-.33,0-.33l-.05-.84.32-.02.51.71h.02s-.05-.72-.05-.72l.27-.03.02.82Z"/>
        <path class="cls-9" d="M14.26,27.19c.07.05.11.11.11.2,0,.06-.01.13-.05.21-.04.08-.1.17-.19.27l-.17.2h0s.32,0,.32,0l.21-.03.02.02-.02.25h-.29s-.53.03-.53.03h-.09s-.02,0-.02,0v-.19s.29-.33.29-.33c.07-.08.12-.15.16-.2s.05-.1.05-.13c0-.03-.01-.06-.04-.07s-.06-.03-.1-.02c-.05,0-.1.02-.16.05-.05.03-.1.06-.15.11h-.04s-.06-.24-.06-.24c.16-.11.31-.18.46-.18.11,0,.2.02.27.06Z"/>
        <path class="cls-9" d="M15.54,27.2c.09.1.14.24.15.43,0,.2-.03.36-.12.47-.09.12-.22.18-.39.19-.16,0-.29-.04-.38-.14-.09-.1-.14-.24-.15-.43,0-.2.03-.36.12-.48.09-.12.22-.18.39-.19.16,0,.29.04.38.13ZM14.95,27.44c-.04.05-.06.14-.06.25,0,.11.03.2.08.25.05.05.12.08.21.07.09,0,.16-.03.21-.09.04-.05.06-.14.06-.25,0-.12-.03-.2-.08-.25-.05-.05-.12-.08-.21-.07-.09,0-.16.03-.2.09Z"/>
        <path class="cls-9" d="M16.59,27.07c.07.05.11.11.11.2,0,.06-.01.13-.05.21-.04.08-.1.17-.19.27l-.17.2h0s.32,0,.32,0l.21-.03.02.02-.02.25h-.28s-.53.03-.53.03h-.09s-.02,0-.02,0v-.19s.29-.33.29-.33c.07-.08.12-.15.16-.2s.05-.1.05-.13c0-.03-.01-.06-.04-.07-.02-.02-.06-.03-.1-.02-.05,0-.1.02-.16.05-.05.03-.1.06-.15.11h-.04s-.06-.24-.06-.24c.16-.11.31-.18.46-.18.11,0,.2.02.27.06Z"/>
        <path class="cls-9" d="M17.7,27.02c.07.05.11.11.11.2,0,.06-.01.13-.05.21-.04.08-.1.17-.19.27l-.17.2h0s.32,0,.32,0l.21-.03.02.02-.02.25h-.28s-.53.03-.53.03h-.09s-.02,0-.02,0v-.19s.29-.33.29-.33c.07-.08.12-.15.16-.2.03-.05.05-.1.05-.13,0-.03-.01-.06-.04-.07-.02-.02-.06-.03-.1-.02-.05,0-.1.02-.16.05-.05.03-.1.06-.15.11h-.04s-.06-.24-.06-.24c.16-.11.31-.18.46-.18.11,0,.2.02.27.06Z"/>
        <path class="cls-9" d="M18.46,27.99c0,.14-.08.28-.26.42l-.1-.08v-.02c.08-.08.12-.16.11-.24,0-.05-.03-.1-.08-.14v-.03c.07-.05.14-.08.22-.11.07.05.11.12.12.2Z"/>
        <path class="cls-9" d="M19.78,27.82v.22s-.71.03-.71.03v-.35s-.06-.83-.06-.83h.3s.02.79.02.79v.14s.42-.02.42-.02l.02.02Z"/>
        <path class="cls-9" d="M21.02,27.97l-.3.02-.04-.17-.02-.07h-.24s-.21.02-.21.02v.05s-.04.19-.04.19h-.29s.36-1.19.36-1.19l.35-.02.44,1.17ZM20.58,27.53l-.16-.45h-.02s-.14.46-.14.46h.15s.16-.02.16-.02Z"/>
        <path class="cls-9" d="M11.62,30.12l-.04.25h-.02s-.08-.03-.13-.04c-.05-.01-.1-.02-.15-.01-.1,0-.16.04-.21.09-.04.06-.06.15-.06.27.01.26.12.38.32.37.05,0,.1-.01.15-.03.05-.01.09-.03.13-.06h.03s-.01.26-.01.26c-.09.04-.19.07-.3.07-.19,0-.34-.04-.45-.13-.1-.1-.16-.24-.17-.44-.01-.2.04-.35.14-.46.1-.11.25-.18.44-.19.12,0,.23,0,.33.04Z"/>
        <path class="cls-9" d="M12.77,30.16c.1.1.16.24.17.42,0,.2-.03.36-.14.48-.1.12-.25.18-.44.19-.18,0-.32-.04-.42-.14-.1-.1-.16-.24-.17-.43,0-.2.03-.36.13-.47.1-.11.25-.18.44-.19.18,0,.32.04.42.13ZM12.13,30.35c-.04.05-.06.15-.05.27,0,.1.02.18.04.24.02.06.05.1.09.12.04.02.1.03.16.03.1,0,.17-.04.21-.09.04-.05.06-.15.05-.28,0-.1-.02-.18-.04-.24-.02-.06-.05-.1-.09-.12-.04-.02-.1-.03-.16-.03-.1,0-.17.03-.2.09Z"/>
        <path class="cls-9" d="M14.24,30.76l.03.38-.32.02-.51-.71h-.02s.01.32.01.32l.03.42h-.27s0-.33,0-.33l-.05-.84.32-.02.51.71h.02s-.05-.72-.05-.72l.27-.03.02.82Z"/>
        <path class="cls-9" d="M15.3,29.94l-.03.27h-.04c-.05-.02-.1-.05-.15-.06-.05-.02-.09-.02-.13-.02-.04,0-.08.01-.1.04-.02.02-.04.05-.03.08,0,.03.02.06.05.08.03.02.08.04.15.07.07.03.13.05.18.07.05.02.09.06.12.1.03.04.05.1.06.17s-.01.13-.04.19c-.03.06-.08.11-.15.15-.07.04-.16.06-.26.07-.06,0-.12,0-.19,0s-.13-.02-.2-.05l.03-.28.03-.02c.05.05.11.08.18.1.07.02.12.04.17.03.04,0,.08-.02.11-.04.03-.02.04-.05.04-.09,0-.03-.02-.06-.05-.08-.03-.02-.08-.04-.15-.06-.07-.03-.13-.05-.18-.08-.05-.02-.09-.06-.12-.1-.03-.04-.05-.1-.06-.17,0-.07.01-.14.05-.2.04-.06.09-.11.16-.15.07-.04.15-.06.25-.06.11,0,.22,0,.33.04Z"/>
        <path class="cls-9" d="M16.53,29.97c.1.1.16.24.17.42,0,.2-.03.36-.13.48-.1.12-.25.18-.44.19-.18,0-.32-.04-.42-.14-.1-.1-.16-.24-.17-.43,0-.2.03-.36.13-.47.1-.11.25-.18.44-.19.18,0,.32.04.42.13ZM15.89,30.17c-.04.05-.06.15-.05.27,0,.1.02.18.04.24.02.06.05.1.09.12.04.02.1.03.16.03.1,0,.17-.03.21-.09.04-.05.06-.15.05-.28,0-.1-.02-.18-.04-.24-.02-.06-.05-.1-.09-.12-.04-.02-.1-.03-.16-.03-.1,0-.17.03-.2.09Z"/>
        <path class="cls-9" d="M18.31,30.93h-.27s-.03-.35-.03-.35l-.06-.38h-.02s-.23.64-.23.64h-.23s-.26-.61-.26-.61h-.02s-.02.36-.02.36v.39s-.26.01-.26.01l.07-1.19.35-.02.06.17.2.49h.02s.16-.51.16-.51l.04-.18.34-.02.17,1.18Z"/>
        <path class="cls-9" d="M19.92,30.85h-.27s-.03-.35-.03-.35l-.06-.38h-.02s-.23.64-.23.64h-.23s-.26-.61-.26-.61h-.02s-.02.36-.02.36v.39s-.26.01-.26.01l.07-1.19.35-.02.06.17.2.49h.02s.16-.51.16-.51l.04-.18.34-.02.17,1.18Z"/>
        <path class="cls-9" d="M21.21,30.79l-.3.02-.04-.17-.02-.07h-.24s-.21.02-.21.02v.05s-.04.19-.04.19h-.29s.36-1.19.36-1.19l.35-.02.44,1.17ZM20.77,30.35l-.16-.45h-.02s-.14.46-.14.46h.15s.16-.02.16-.02Z"/>
        <path class="cls-9" d="M22.08,29.58v.23s-.25,0-.25,0h-.07s.02.58.02.58l.03.38h-.29s0-.34,0-.34l-.03-.6h-.07s-.24.03-.24.03l-.02-.02v-.23s.91-.04.91-.04l.02.02Z"/>
        <path class="cls-9" d="M22.62,30.34l.03.38h-.3s0-.34,0-.34l-.05-.83.3-.02.02.81Z"/>
        <path class="cls-9" d="M23.86,29.6c.1.1.16.24.17.42,0,.2-.03.36-.14.48-.1.12-.25.18-.44.19-.18,0-.32-.04-.42-.14-.1-.1-.16-.24-.17-.43,0-.2.03-.36.13-.47.1-.11.25-.18.44-.19.18,0,.32.04.42.13ZM23.22,29.8c-.04.05-.06.15-.05.27,0,.1.02.18.04.24.02.06.05.1.09.12.04.02.09.03.16.03.1,0,.17-.03.21-.09.04-.05.06-.15.05-.28,0-.1-.02-.18-.04-.24-.02-.06-.05-.1-.09-.12-.04-.02-.1-.03-.16-.03-.1,0-.16.03-.2.09Z"/>
        <path class="cls-9" d="M25.33,30.21l.03.38-.32.02-.51-.71h-.02s.01.32.01.32l.03.42h-.27s0-.33,0-.33l-.05-.84.32-.02.51.71h.02s-.05-.72-.05-.72l.27-.03.03.82Z"/>
        <path class="cls-9" d="M12.34,34.05h-.3s-.04-.16-.04-.16l-.02-.07h-.24s-.21.02-.21.02v.05s-.04.19-.04.19h-.29s.36-1.19.36-1.19l.35-.02.44,1.17ZM11.9,33.61l-.16-.45h-.02s-.13.46-.13.46h.15s.16-.02.16-.02Z"/>
        <path class="cls-9" d="M13.47,33.41v.18c.01.13-.02.24-.11.32-.09.08-.21.12-.38.13-.16,0-.29-.02-.38-.09-.09-.07-.14-.17-.14-.3v-.19s-.04-.6-.04-.6h.3s.02.73.02.73c0,.08.02.13.06.17.04.03.1.05.18.05.08,0,.14-.03.17-.06.04-.04.05-.1.05-.17l-.05-.74h.3s.02.59.02.59Z"/>
        <path class="cls-9" d="M14.71,32.88c.1.09.16.23.17.4.01.21-.04.37-.14.49-.1.12-.26.18-.47.19-.12,0-.27,0-.45,0v-.35s-.06-.83-.06-.83l.52-.03c.18,0,.33.03.43.12ZM14.58,33.37c0-.14-.04-.24-.08-.3-.05-.06-.12-.08-.22-.08-.07,0-.14.01-.2.02l.02.57v.15s.09,0,.13,0c.04,0,.07,0,.1,0,.19,0,.28-.13.26-.37Z"/>
        <path class="cls-9" d="M15.41,33.52l.03.38h-.3s0-.34,0-.34l-.05-.83.3-.02.02.81Z"/>
        <path class="cls-9" d="M16.65,32.79c.1.1.16.24.17.43.01.2-.03.36-.13.48-.1.12-.25.18-.44.19-.18,0-.32-.04-.42-.14-.1-.1-.16-.24-.17-.43-.01-.2.03-.36.13-.47.1-.11.25-.18.44-.19.18,0,.32.03.42.13ZM16.01,32.98c-.04.05-.06.15-.05.27,0,.1.02.18.04.24.02.06.05.1.09.12.04.02.1.03.16.03.1,0,.17-.03.21-.09.04-.05.06-.15.05-.27,0-.1-.02-.18-.04-.24-.02-.06-.05-.1-.09-.12-.04-.02-.1-.03-.16-.03-.1,0-.17.03-.2.09Z"/>
        <path class="cls-9" d="M17.64,33.79l-.35.02-.43-1.17h.3s.04.15.04.15l.25.73h.02s.21-.74.21-.74l.02-.19h.29s-.35,1.19-.35,1.19Z"/>
        <path class="cls-9" d="M18.52,33.37l.03.38h-.3s0-.34,0-.34l-.05-.83.3-.02.02.81Z"/>
        <path class="cls-9" d="M19.59,32.55l-.03.27h-.04c-.05-.02-.1-.05-.15-.06-.05-.02-.09-.02-.13-.02-.04,0-.08.01-.1.04-.02.02-.04.05-.03.08,0,.03.02.06.05.08.03.02.08.04.15.07.07.03.13.05.18.07.05.02.09.06.12.1.03.04.05.1.06.16,0,.07-.01.13-.04.19-.03.06-.08.11-.15.15-.07.04-.16.06-.26.07-.06,0-.12,0-.19,0-.07,0-.13-.02-.2-.05l.03-.28.03-.02c.05.05.11.08.18.1.07.03.12.04.17.03.04,0,.08-.01.1-.04.03-.02.04-.05.04-.08,0-.03-.02-.06-.05-.08-.03-.02-.08-.04-.15-.06-.07-.03-.13-.05-.18-.08-.05-.02-.09-.06-.12-.1-.03-.04-.05-.1-.06-.17,0-.07.01-.14.05-.2.04-.06.09-.11.16-.14.07-.04.15-.06.25-.06.11,0,.22,0,.33.04Z"/>
        <path class="cls-9" d="M20.91,33.04v.18c.01.13-.02.24-.11.32-.09.08-.21.12-.38.13-.16,0-.29-.02-.38-.09-.09-.07-.14-.17-.14-.3v-.19s-.04-.6-.04-.6l.3-.02.02.74c0,.08.02.13.06.17.04.03.1.05.18.05.08,0,.14-.03.17-.06.04-.04.05-.1.05-.17l-.05-.74.3-.02.02.6Z"/>
        <path class="cls-9" d="M22.06,33.33l.02.02v.22s-.82.04-.82.04v-.35s-.06-.83-.06-.83l.82-.04.02.02v.22s-.31,0-.31,0h-.22s0,.25,0,.25h.21s.2-.03.2-.03l.02.02v.22s-.23,0-.23,0h-.19s0,.11,0,.11v.15s.22-.01.22-.01l.32-.02Z"/>
        <path class="cls-9" d="M23.02,33.3v.22s-.7.03-.7.03v-.35s-.06-.83-.06-.83h.3s.02.79.02.79v.14s.42-.02.42-.02l.02.02Z"/>
        <path class="cls-9" d="M23.93,33.26v.22s-.7.03-.7.03v-.35s-.06-.83-.06-.83h.3s.02.79.02.79v.14s.42-.02.42-.02l.02.02Z"/>
        <path class="cls-9" d="M24.95,33.19l.02.02v.22s-.82.04-.82.04v-.35s-.06-.83-.06-.83l.82-.04.02.02v.22s-.31,0-.31,0h-.22s0,.25,0,.25h.21s.2-.03.2-.03l.02.02v.22s-.23,0-.23,0h-.2s0,.11,0,.11v.15s.22-.01.22-.01l.32-.02Z"/>
        <path class="cls-9" d="M26.38,33.12l.02.02v.22s-.82.04-.82.04v-.35s-.06-.83-.06-.83l.82-.04.02.02v.22s-.31,0-.31,0h-.22s0,.25,0,.25h.21s.2-.03.2-.03l.02.02v.22s-.23,0-.23,0h-.19s0,.11,0,.11v.15s.22-.01.22-.01l.32-.02Z"/>
        <path class="cls-9" d="M27.69,32.91l.03.38-.32.02-.51-.71h-.02s.01.32.01.32l.03.41h-.27s0-.33,0-.33l-.05-.84.32-.02.51.71h.02s-.05-.72-.05-.72l.27-.03.02.82Z"/>
        <path class="cls-9" d="M28.68,31.98v.41s.23,0,.23,0l.25-.02.02.02v.24s-.29,0-.29,0h-.19s0,.13,0,.13l.04.48-.32.02v-.45s-.08-1.06-.08-1.06l.9-.04.02.03v.24s-.37,0-.37,0h-.22Z"/>
        <path class="cls-9" d="M30.48,33.08v.03c-.1.03-.19.06-.28.07l-.04-.03c-.1-.15-.17-.27-.22-.36h-.18s.03.39.03.39h-.3s0-.34,0-.34l-.05-.83.51-.03c.13,0,.24.02.31.08.08.06.12.15.12.26,0,.07-.01.14-.05.21-.04.07-.09.12-.16.17.11.15.22.27.31.38ZM29.74,32.58h.18c.05-.02.09-.05.11-.08.02-.03.03-.08.03-.13,0-.06-.02-.1-.06-.12-.03-.03-.09-.04-.16-.04h-.12s.01.37.01.37Z"/>
        <path class="cls-9" d="M31.73,33.09l-.3.02-.04-.17-.02-.07h-.24s-.21.02-.21.02v.05s-.04.19-.04.19h-.29s.36-1.19.36-1.19l.35-.02.44,1.17ZM31.29,32.65l-.16-.45h-.02s-.13.46-.13.46h.15s.16-.02.16-.02Z"/>
        <path class="cls-9" d="M33,32.65l.03.38-.32.02-.51-.71h-.02s.01.32.01.32l.03.41h-.27s0-.33,0-.33l-.05-.84.32-.02.51.71h.02s-.05-.72-.05-.72l.27-.03.02.82Z"/>
        <path class="cls-9" d="M34.14,31.82l-.04.25h-.02s-.08-.03-.13-.04c-.05-.01-.1-.02-.15-.01-.09,0-.17.04-.21.09-.04.06-.06.15-.06.27.01.26.12.38.32.37.05,0,.1-.01.15-.03.05-.01.09-.03.13-.06h.03s-.01.26-.01.26c-.09.04-.19.07-.3.07-.19,0-.34-.03-.45-.13-.11-.1-.16-.24-.17-.44,0-.2.04-.35.14-.47.1-.11.25-.17.45-.18.12,0,.23,0,.33.04Z"/>
        <path class="cls-9" d="M35.22,32.67l.02.02v.22s-.82.04-.82.04v-.35s-.06-.83-.06-.83l.82-.04.02.02v.22s-.31,0-.31,0h-.22s0,.25,0,.25h.21s.2-.03.2-.03l.02.02v.22s-.23,0-.23,0h-.2s0,.11,0,.11v.15s.22-.01.22-.01l.32-.02Z"/>
        <path class="cls-9" d="M11.91,35.44v.03c-.09.09-.15.2-.19.34-.04.13-.05.3-.04.51,0,.2.04.36.09.48.05.12.12.23.22.31v.03s-.11.1-.11.1h-.03c-.14-.09-.24-.21-.31-.35-.07-.14-.11-.33-.12-.55-.01-.24,0-.44.06-.59.05-.15.14-.28.27-.39h.03s.12.09.12.09Z"/>
        <path class="cls-9" d="M13.06,35.35v.24s-.29,0-.29,0h-.09s.03.79.03.79l.04.48-.32.02v-.45s-.06-.81-.06-.81h-.09s-.29.03-.29.03l-.02-.03v-.24s1.08-.05,1.08-.05l.02.03Z"/>
        <path class="cls-9" d="M14.03,36.79l-.38.02-.54-1.49.32-.02.05.2.34,1h.02s.28-1.02.28-1.02l.03-.22.31-.02-.43,1.54Z"/>
        <path class="cls-9" d="M14.79,36.65c0,.14-.08.28-.26.42l-.1-.08v-.02c.08-.08.12-.15.11-.24,0-.05-.03-.1-.08-.14v-.03c.07-.05.15-.08.22-.11.07.05.11.12.12.2Z"/>
        <path class="cls-9" d="M16.11,35.54l-.03.27h-.04c-.05-.02-.1-.05-.15-.06-.05-.02-.09-.02-.13-.02-.04,0-.08.01-.1.04-.02.02-.04.05-.03.08,0,.03.02.06.05.08.03.02.08.04.15.07.07.03.13.05.18.07.05.02.09.06.12.1.03.04.05.1.06.17s-.01.13-.04.19c-.03.06-.08.11-.15.15s-.16.06-.26.07c-.06,0-.12,0-.19,0s-.13-.02-.2-.05l.03-.28.03-.02c.05.04.11.08.18.1.07.02.12.04.17.03.04,0,.08-.01.1-.04.03-.02.04-.05.04-.08,0-.03-.02-.06-.05-.08-.03-.02-.08-.04-.15-.06-.07-.03-.13-.05-.18-.08-.05-.02-.09-.06-.12-.1-.03-.04-.05-.1-.06-.17,0-.07.01-.13.05-.19.04-.06.09-.11.16-.15.07-.04.15-.06.25-.06.11,0,.22,0,.33.04Z"/>
        <path class="cls-9" d="M17.2,35.47v.23s-.25,0-.25,0h-.07s.02.58.02.58l.03.38h-.29s0-.34,0-.34l-.03-.6h-.07s-.24.03-.24.03l-.02-.02v-.23s.91-.04.91-.04l.02.02Z"/>
        <path class="cls-9" d="M18.47,36.5v.03c-.1.03-.19.06-.28.07l-.04-.03c-.1-.15-.17-.27-.22-.36h-.18s0,.01,0,.01l.03.38h-.3s0-.34,0-.34l-.05-.83.51-.03c.13,0,.24.02.31.08.08.06.12.15.12.26,0,.07-.01.14-.05.21-.04.07-.09.12-.16.17.11.15.22.27.31.38ZM17.73,36h.18c.05-.02.09-.05.11-.08.02-.03.03-.08.03-.13,0-.06-.02-.1-.06-.12-.03-.03-.09-.04-.16-.04h-.12s.01.37.01.37Z"/>
        <path class="cls-9" d="M19.5,36.28l.02.02v.22s-.82.04-.82.04v-.35s-.06-.83-.06-.83l.82-.04.02.02v.22s-.31,0-.31,0h-.22s0,.25,0,.25h.21s.2-.03.2-.03l.02.02v.22s-.23,0-.23,0h-.2s0,.11,0,.11v.15s.22-.01.22-.01l.32-.02Z"/>
        <path class="cls-9" d="M20.78,36.46l-.3.02-.04-.17-.02-.07h-.24s-.21.02-.21.02v.05s-.04.19-.04.19h-.29s.36-1.19.36-1.19l.35-.02.44,1.17ZM20.34,36.02l-.16-.45h-.02s-.13.46-.13.46h.15s.16-.02.16-.02Z"/>
        <path class="cls-9" d="M22.34,36.38h-.27s-.03-.34-.03-.34l-.06-.39h-.02s-.23.64-.23.64h-.23s-.26-.61-.26-.61h-.02s-.02.36-.02.36v.39s-.26.01-.26.01l.07-1.19.35-.02.06.17.2.49h.02s.16-.51.16-.51l.04-.18.34-.02.17,1.18Z"/>
        <path class="cls-9" d="M22.89,35.97l.03.38h-.3s0-.34,0-.34l-.05-.83h.3s.02.79.02.79Z"/>
        <path class="cls-9" d="M24.32,35.9l.03.37-.32.02-.51-.71h-.02s.01.32.01.32l.03.41h-.27s0-.33,0-.33l-.05-.84.32-.02.51.71h.02s-.04-.72-.04-.72l.27-.03.02.82Z"/>
        <path class="cls-9" d="M25.56,35.08l-.06.27h-.03c-.06-.03-.12-.05-.17-.06-.05-.01-.1-.02-.16-.01-.11,0-.18.04-.23.1s-.06.16-.06.3c0,.09.02.17.04.22.02.05.06.09.1.11.05.02.11.03.18.02.05,0,.1-.01.15-.03v-.08s-.02-.19-.02-.19l.27-.03v.16s.02.3.02.3c-.15.06-.29.09-.43.1-.2,0-.35-.03-.45-.13-.11-.1-.16-.24-.17-.43-.01-.21.04-.37.15-.48.11-.11.27-.18.49-.19.13,0,.26,0,.37.05Z"/>
        <path class="cls-9" d="M27.26,36.13h-.3s-.04-.15-.04-.15l-.02-.07h-.24s-.21.02-.21.02v.05s-.04.19-.04.19h-.29s.36-1.19.36-1.19l.35-.02.44,1.17ZM26.82,35.69l-.16-.45h-.02s-.14.46-.14.46h.15s.16-.02.16-.02Z"/>
        <path class="cls-9" d="M28.4,35.49v.18c.01.13-.02.24-.11.32-.09.08-.21.12-.38.13-.16,0-.29-.02-.38-.09-.09-.07-.14-.17-.14-.3v-.19s-.04-.6-.04-.6h.3s.02.73.02.73c0,.08.02.13.06.17.04.03.1.05.18.05.08,0,.14-.03.17-.06.04-.04.05-.1.05-.17l-.05-.74h.3s.02.59.02.59Z"/>
        <path class="cls-9" d="M29.63,34.96c.1.09.16.23.17.4.01.21-.04.38-.14.49s-.26.18-.47.19c-.12,0-.27,0-.45,0v-.35s-.06-.83-.06-.83l.52-.04c.18,0,.33.03.43.12ZM29.5,35.45c0-.14-.03-.24-.08-.3-.05-.06-.12-.08-.22-.08-.07,0-.14.01-.2.02l.02.57v.15s.09,0,.13,0c.04,0,.07,0,.1,0,.19,0,.28-.13.26-.37Z"/>
        <path class="cls-9" d="M30.34,35.6l.03.38h-.3s0-.34,0-.34l-.05-.83.3-.02.02.81Z"/>
        <path class="cls-9" d="M31.57,34.87c.1.1.16.24.17.42.01.2-.03.36-.14.48-.1.12-.25.18-.44.19-.18,0-.32-.04-.42-.13-.1-.1-.16-.24-.17-.43-.01-.2.03-.36.13-.47.1-.11.25-.18.44-.19.18,0,.32.04.42.13ZM30.94,35.06c-.04.05-.06.14-.05.27,0,.1.02.18.04.24.02.06.05.1.09.12.04.02.1.03.16.03.1,0,.17-.03.21-.09.04-.05.06-.15.05-.28,0-.1-.02-.18-.04-.24s-.05-.1-.09-.12c-.04-.02-.1-.03-.16-.03-.1,0-.16.03-.2.09Z"/>
        <path class="cls-9" d="M32.49,34.3l-.39,1.86h-.22s-.02-.01-.02-.01l.39-1.86h.21s.03.02.03.02Z"/>
        <path class="cls-9" d="M11.86,39.73l-.35.02-.43-1.17h.3s.04.15.04.15l.25.73h.02s.21-.74.21-.74l.02-.19h.29s-.35,1.19-.35,1.19Z"/>
        <path class="cls-9" d="M12.73,39.3l.03.38h-.3s0-.34,0-.34l-.05-.83.3-.02.02.81Z"/>
        <path class="cls-9" d="M14.01,38.57c.1.09.16.23.17.4.01.21-.04.37-.14.49-.1.12-.26.18-.47.19-.12,0-.27,0-.45,0v-.35s-.06-.83-.06-.83l.52-.04c.18,0,.33.03.43.12ZM13.87,39.06c0-.14-.03-.24-.08-.3-.05-.06-.12-.08-.22-.08-.07,0-.14.01-.2.02l.02.57v.15s.09,0,.13,0c.04,0,.07,0,.1,0,.19,0,.28-.13.26-.37Z"/>
        <path class="cls-9" d="M15.25,39.32l.02.02v.22s-.82.04-.82.04v-.35s-.06-.83-.06-.83l.82-.04.02.02v.22s-.31,0-.31,0h-.22s0,.25,0,.25h.21s.2-.03.2-.03l.02.02v.22s-.23,0-.23,0h-.19s0,.11,0,.11v.15s.22-.01.22-.01l.32-.02ZM14.64,38.27l-.08-.11c.17-.16.31-.28.41-.38h.03s.12.16.12.16v.03s-.06.04-.08.05c-.19.13-.31.21-.37.25h-.03Z"/>
        <path class="cls-9" d="M16.35,38.45c.1.1.16.24.17.43.01.2-.03.36-.14.48-.1.12-.25.18-.44.19-.18,0-.32-.04-.42-.14-.1-.1-.16-.24-.17-.43,0-.2.03-.36.13-.47.1-.11.25-.18.44-.19.18,0,.32.04.42.13ZM15.71,38.65c-.04.05-.06.15-.05.27,0,.1.02.18.04.24.02.06.05.1.09.12.04.02.1.03.16.03.1,0,.17-.03.21-.09s.06-.15.05-.27c0-.1-.02-.18-.04-.24-.02-.06-.05-.1-.09-.12-.04-.02-.09-.03-.16-.03-.1,0-.17.03-.2.09Z"/>
        <path class="cls-9" d="M16.64,39.72v-.03c.09-.09.15-.2.19-.33.04-.13.05-.31.04-.51,0-.2-.04-.36-.09-.48-.05-.12-.12-.23-.22-.31v-.03s.11-.1.11-.1h.03c.14.09.24.21.31.35s.11.33.12.55c.01.24-.01.44-.06.59-.05.15-.14.28-.27.39h-.03s-.12-.09-.12-.09Z"/>
        <path class="cls-9" d="M18.87,39.38l-.3.02-.04-.17-.02-.07h-.24s-.21.02-.21.02v.05s-.04.19-.04.19h-.29s.36-1.19.36-1.19l.35-.02.44,1.17ZM18.43,38.93l-.16-.45h-.02s-.14.46-.14.46h.15s.16-.02.16-.02Z"/>
        <path class="cls-9" d="M20.22,38.21c.07.06.11.15.12.27,0,.14-.04.25-.13.34-.09.09-.22.14-.38.14h-.12s.03.37.03.37h-.3s0-.34,0-.34l-.05-.83.51-.03c.13,0,.24.02.31.08ZM20,38.67s.04-.08.03-.14c0-.06-.02-.1-.06-.13-.04-.03-.09-.04-.16-.04h-.12s.01.4.01.4h.17c.05-.02.09-.05.12-.08Z"/>
        <path class="cls-9" d="M21.61,39.17v.03c-.1.03-.19.06-.28.07l-.04-.03c-.1-.15-.17-.27-.22-.36h-.18s.03.39.03.39h-.3s0-.34,0-.34l-.05-.83.51-.03c.13,0,.24.02.31.08.08.06.12.14.12.26,0,.07-.01.14-.05.21-.04.07-.09.12-.16.17.11.15.22.28.31.38ZM20.87,38.67h.18c.05-.02.09-.05.11-.08.02-.03.03-.08.03-.13,0-.06-.02-.1-.06-.12-.03-.03-.09-.04-.16-.04h-.12s.01.37.01.37Z"/>
        <path class="cls-9" d="M22.69,38.13c.1.1.16.24.17.43.01.2-.03.36-.14.48-.1.12-.25.18-.44.19-.18,0-.32-.04-.42-.14-.1-.1-.16-.24-.17-.43,0-.2.03-.36.13-.47.1-.11.25-.18.44-.19.18,0,.32.04.42.13ZM22.05,38.33c-.04.05-.06.15-.05.27,0,.1.02.18.04.24.02.06.05.1.09.12.04.02.1.03.16.03.1,0,.17-.03.21-.09s.06-.15.05-.27c0-.1-.02-.18-.04-.24-.02-.06-.05-.1-.09-.12-.04-.02-.09-.03-.16-.03-.1,0-.17.03-.2.09Z"/>
        <path class="cls-9" d="M24.01,38.07c.1.09.16.23.17.4.01.21-.04.37-.14.49-.1.12-.26.18-.47.19-.12,0-.27,0-.45,0v-.35s-.06-.83-.06-.83l.52-.04c.18,0,.33.03.43.12ZM23.88,38.56c0-.14-.03-.24-.08-.3s-.12-.08-.22-.08c-.07,0-.14.01-.2.02l.02.57v.15s.09,0,.13,0c.04,0,.07,0,.1,0,.19,0,.28-.13.26-.37Z"/>
        <path class="cls-9" d="M25.42,38.47v.18c.01.13-.02.24-.11.32-.09.08-.21.12-.38.13-.16,0-.29-.02-.38-.09-.09-.07-.14-.17-.14-.3v-.19s-.04-.6-.04-.6h.3s.02.73.02.73c0,.08.02.13.06.17.04.03.1.05.18.05.08,0,.14-.03.17-.06.04-.04.05-.1.05-.17l-.05-.74h.3s.02.59.02.59Z"/>
        <path class="cls-9" d="M26.03,38.64l.03.38h-.3s0-.34,0-.34l-.05-.83.3-.02.02.81Z"/>
        <path class="cls-9" d="M27.17,37.8v.23s-.25,0-.25,0h-.07s.02.58.02.58l.03.38h-.29s0-.34,0-.34l-.03-.6h-.07s-.24.03-.24.03l-.02-.02v-.23s.91-.05.91-.05l.02.02Z"/>
        <path class="cls-9" d="M28.51,37.71l-.02.24-.02.03h-.22s-.27,0-.27,0v.26s.15.02.15.02c.14.02.24.06.3.12.06.06.1.14.1.24,0,.1-.02.19-.06.27-.05.08-.11.14-.2.19-.09.05-.19.07-.31.08-.08,0-.17,0-.26-.01l-.03-.24.02-.02c.1.03.2.04.28.04.09,0,.15-.03.2-.07.05-.04.07-.1.07-.16,0-.05-.02-.09-.06-.12-.04-.03-.1-.05-.18-.06l-.23-.03-.02-.03-.02-.67.04-.04h.14s.34-.02.34-.02l.24-.02.02.02Z"/>
        <path class="cls-9" d="M29.08,38.76c0,.14-.08.28-.26.42l-.11-.08v-.02c.08-.08.12-.15.11-.24,0-.05-.03-.1-.08-.14v-.03c.07-.05.15-.08.22-.11.07.05.11.12.12.2Z"/>
        <path class="cls-9" d="M30.1,38.08c.07.07.11.17.12.29,0,.08-.01.16-.05.23-.04.07-.09.13-.16.18-.07.05-.16.07-.27.08-.15,0-.28-.03-.36-.12-.09-.09-.13-.22-.14-.38,0-.19.04-.37.15-.53.11-.16.27-.29.49-.4h.02s.22.13.22.13v.03c-.16.07-.28.14-.37.21-.09.07-.15.15-.18.25l.02.02c.07-.05.15-.07.23-.08.12,0,.22.03.29.1ZM29.89,38.59s.05-.1.04-.17c0-.07-.02-.13-.06-.17-.04-.04-.09-.05-.15-.05-.07,0-.14.03-.21.08v.05c0,.11.03.19.06.25.04.05.09.08.17.07.06,0,.11-.03.15-.06Z"/>
        <path class="cls-9" d="M13.34,42.48h-.28s-.05-.44-.05-.44l-.08-.58h-.02s-.29.9-.29.9h-.25s-.35-.85-.35-.85h-.02s-.03.55-.03.55v.49s-.28.01-.28.01l.08-1.52.37-.02.07.22.27.7h.02s.22-.73.22-.73l.06-.23.36-.02.21,1.5Z"/>
        <path class="cls-9" d="M14.38,41.26v.23s-.25,0-.25,0h-.07s.02.58.02.58l.03.38h-.29s0-.34,0-.34l-.03-.6h-.07s-.24.03-.24.03l-.02-.02v-.23s.91-.04.91-.04l.02.02Z"/>
        <path class="cls-9" d="M15.53,40.92l-.04.27h-.03s-.1-.04-.16-.06c-.06-.02-.12-.02-.17-.02-.25.01-.36.18-.35.51,0,.18.05.31.12.39.07.09.17.12.29.12.06,0,.12-.01.18-.04.06-.02.12-.05.16-.08l.03.02v.27c-.13.06-.25.1-.38.1-.23.01-.4-.05-.53-.17-.12-.12-.19-.31-.21-.56-.01-.25.04-.45.16-.59s.29-.22.52-.23c.15,0,.28.02.4.07Z"/>
        <path class="cls-9" d="M16.84,40.96c.12.12.19.3.2.54.01.26-.04.46-.16.61-.12.15-.29.23-.52.24-.21.01-.38-.05-.5-.17-.12-.13-.19-.31-.2-.55-.01-.25.04-.45.16-.6.12-.14.29-.22.52-.23.21-.01.38.05.5.17ZM16.06,41.18c-.05.08-.07.21-.07.39.01.2.05.35.1.43.06.08.15.12.28.12.12,0,.21-.05.27-.13.05-.08.07-.21.06-.39,0-.2-.04-.34-.1-.42-.06-.08-.15-.12-.28-.11-.13,0-.21.05-.27.13Z"/>
        <path class="cls-9" d="M17.75,41.68c.06.04.08.09.09.16,0,.05-.01.1-.04.15-.03.06-.07.12-.14.21l-.11.16h0s.21,0,.21,0l.16-.02v.02s0,.19,0,.19h-.22s-.39.02-.39.02h-.06s-.01,0-.01,0v-.15s.2-.25.2-.25c.06-.07.1-.13.12-.16.02-.03.03-.07.03-.09,0-.02-.01-.04-.03-.05-.02-.01-.04-.02-.07-.02-.03,0-.07.01-.11.03s-.07.05-.11.08h-.03s-.05-.18-.05-.18c.12-.09.23-.13.35-.14.08,0,.15.01.2.05Z"/>
        <path class="cls-9" d="M18.43,42.11c0,.14-.08.28-.26.42l-.1-.08v-.02c.08-.08.12-.15.11-.24,0-.05-.03-.1-.08-.14v-.03c.07-.05.14-.08.22-.11.07.05.11.12.12.2Z"/>
        <path class="cls-9" d="M19.74,41.01l-.03.26h-.04c-.05-.02-.1-.05-.15-.06-.05-.02-.09-.02-.13-.02-.04,0-.08.01-.1.04-.02.02-.04.05-.03.08,0,.03.02.06.05.08.03.02.08.04.15.07.07.03.13.05.18.07.05.02.09.06.12.1.03.04.05.1.06.17s-.01.13-.04.19c-.03.06-.08.11-.15.15-.07.04-.16.06-.26.07-.06,0-.12,0-.19,0-.07,0-.13-.02-.2-.05l.03-.28.03-.02c.05.05.11.08.18.1.06.03.12.04.17.03.04,0,.08-.01.11-.04.03-.02.04-.05.04-.08,0-.03-.02-.06-.05-.08-.03-.02-.08-.04-.15-.06-.07-.03-.13-.05-.18-.08-.05-.02-.09-.06-.12-.1-.03-.04-.05-.1-.06-.17,0-.07.01-.14.05-.19.04-.06.09-.11.16-.15.07-.04.15-.06.25-.06.11,0,.22,0,.33.04Z"/>
        <path class="cls-9" d="M20.97,41.04c.1.1.16.24.17.42,0,.2-.04.36-.14.48s-.25.18-.44.19c-.18,0-.32-.04-.42-.14s-.16-.24-.17-.43c0-.2.03-.36.13-.47.1-.11.25-.18.44-.19.18,0,.32.04.42.13ZM20.33,41.24c-.04.05-.06.15-.05.27,0,.1.02.18.04.24.02.06.05.1.09.12.04.02.1.03.16.03.1,0,.17-.03.21-.09.04-.05.05-.15.05-.28,0-.1-.02-.18-.04-.24s-.05-.1-.09-.12c-.04-.02-.1-.03-.16-.03-.1,0-.16.03-.2.09Z"/>
        <path class="cls-9" d="M21.67,41.68l.03.38h-.3s0-.34,0-.34l-.05-.83.3-.02.02.81Z"/>
        <path class="cls-9" d="M22.8,40.84v.23s-.25,0-.25,0h-.07s.02.58.02.58l.03.38h-.29s0-.34,0-.34l-.03-.6h-.07s-.24.03-.24.03l-.02-.02v-.23s.91-.05.91-.05l.02.02Z"/>
        <path class="cls-9" d="M24.45,41.92l-.3.02-.04-.17-.02-.07h-.24s-.21.02-.21.02v.05s-.04.19-.04.19h-.29s.36-1.19.36-1.19l.35-.02.44,1.17ZM24.01,41.48l-.16-.45h-.02s-.13.46-.13.46h.15s.16-.02.16-.02Z"/>
        <path class="cls-9" d="M25.59,41.28v.18c.02.13-.02.24-.11.32-.09.08-.21.12-.38.13-.16,0-.29-.02-.38-.09-.09-.07-.14-.17-.14-.3v-.19s-.04-.6-.04-.6l.3-.02.02.74c0,.08.02.13.06.17.04.03.1.05.18.05.08,0,.14-.03.17-.06.04-.04.05-.1.05-.17l-.05-.74.3-.02.02.6Z"/>
        <path class="cls-9" d="M26.7,40.64v.23s-.25,0-.25,0h-.07s.02.58.02.58l.03.38h-.29s0-.34,0-.34l-.04-.6h-.07s-.24.03-.24.03l-.02-.02v-.23s.91-.05.91-.05l.02.02Z"/>
        <path class="cls-9" d="M27.88,41.75h-.3s-.04-.16-.04-.16l-.02-.06h-.24s-.21.02-.21.02v.05s-.04.19-.04.19h-.29s.36-1.19.36-1.19l.35-.02.44,1.17ZM27.44,41.31l-.16-.45h-.02s-.13.46-.13.46h.15s.16-.02.16-.02Z"/>
        <path class="cls-9" d="M29.15,41.31l.03.37-.32.02-.51-.71h-.02s.01.32.01.32l.03.41h-.27s0-.33,0-.33l-.05-.84.32-.02.51.71h.02s-.05-.72-.05-.72l.27-.03.02.82Z"/>
        <path class="cls-9" d="M30.27,40.47v.23s-.25,0-.25,0h-.07s.02.58.02.58l.03.38h-.29s0-.34,0-.34l-.03-.6h-.07s-.24.03-.24.03l-.02-.02v-.23s.91-.04.91-.04l.02.02Z"/>
        <path class="cls-9" d="M32.2,41.72s-.04.08-.06.11-.04.05-.06.08h-.02c-.22-.07-.43-.18-.62-.31-.01,0-.03,0-.06,0-.18,0-.32-.04-.42-.14-.1-.1-.16-.24-.17-.43,0-.2.03-.36.13-.47.1-.11.25-.18.44-.19.18,0,.32.04.42.13.1.1.16.24.17.42,0,.14-.01.26-.06.36-.05.1-.12.17-.21.23.16.08.33.14.51.18v.03ZM31.13,41.22c.02.06.05.1.09.12.04.02.1.03.16.03.1,0,.17-.03.21-.09.04-.05.06-.15.05-.28,0-.1-.02-.18-.04-.24-.02-.06-.05-.1-.09-.12-.04-.02-.1-.03-.16-.03-.1,0-.17.03-.2.09-.04.05-.06.15-.05.27,0,.1.02.18.04.24Z"/>
        <path class="cls-9" d="M33.19,40.9v.18c.01.13-.02.24-.11.32-.09.08-.21.12-.38.13-.16,0-.29-.02-.38-.09-.09-.07-.14-.17-.14-.3v-.19s-.04-.6-.04-.6h.3s.02.73.02.73c0,.08.02.13.06.17.04.03.1.05.18.05.08,0,.14-.03.18-.06.04-.04.05-.1.05-.17l-.05-.74.3-.02.02.6Z"/>
        <path class="cls-9" d="M34.34,41.19l.02.02v.22s-.82.04-.82.04v-.35s-.06-.83-.06-.83l.82-.04.02.02v.22s-.31,0-.31,0h-.22s0,.25,0,.25h.21s.2-.03.2-.03l.02.02v.22s-.23,0-.23,0h-.2s0,.11,0,.11v.15s.22-.01.22-.01l.32-.02Z"/>
        <path class="cls-9" d="M12.58,45.12v.22s-.7.03-.7.03v-.35s-.06-.83-.06-.83l.3-.02.02.81v.14s.42-.02.42-.02l.02.02Z"/>
        <path class="cls-9" d="M13.6,45.05l.02.02v.22s-.82.04-.82.04v-.35s-.06-.83-.06-.83l.82-.04.02.02v.22s-.31,0-.31,0h-.22s0,.25,0,.25h.21s.2-.03.2-.03l.02.02v.22s-.23,0-.23,0h-.19s0,.11,0,.11v.15s.22-.01.22-.01l.32-.02Z"/>
        <path class="cls-9" d="M14.56,44.09l-.03.27h-.04c-.05-.02-.1-.05-.15-.06-.05-.02-.09-.02-.13-.02-.04,0-.08.01-.1.04-.02.02-.04.05-.03.08,0,.03.02.06.05.08.03.02.08.04.15.07.07.03.13.05.18.07.05.02.09.06.12.1.03.04.05.1.06.17,0,.07-.01.13-.04.19-.03.06-.08.11-.15.15-.07.04-.16.06-.26.07-.06,0-.12,0-.19,0-.07,0-.13-.02-.2-.05l.03-.28.03-.02c.05.05.11.08.18.1.07.03.12.04.17.03.04,0,.08-.01.1-.04.03-.02.04-.05.04-.08,0-.03-.02-.06-.05-.08-.03-.02-.08-.04-.15-.06-.07-.03-.13-.05-.18-.08-.05-.02-.09-.06-.12-.1-.03-.04-.05-.1-.06-.17,0-.07.01-.14.05-.2.04-.06.09-.11.16-.15.07-.04.15-.06.25-.06.11,0,.22,0,.33.04Z"/>
        <path class="cls-9" d="M16.26,45.09v.03c-.1.03-.19.06-.28.07l-.04-.03c-.1-.15-.17-.27-.22-.36h-.18s.03.39.03.39h-.3s0-.34,0-.34l-.05-.83.51-.03c.13,0,.24.02.31.08.08.06.12.15.12.26,0,.07-.01.14-.05.21-.04.07-.09.12-.16.17.11.15.22.27.31.38ZM15.53,44.58h.18c.05-.02.09-.05.11-.08.02-.03.03-.08.03-.13,0-.06-.02-.1-.06-.12-.03-.03-.09-.04-.16-.04h-.12s.01.37.01.37Z"/>
        <path class="cls-9" d="M17.3,44.86l.02.02v.22s-.82.04-.82.04v-.35s-.06-.83-.06-.83l.82-.04.02.02v.22s-.31,0-.31,0h-.22s0,.25,0,.25h.21s.2-.03.2-.03l.02.02v.22s-.23,0-.23,0h-.2s0,.11,0,.11v.15s.22-.01.22-.01l.32-.02Z"/>
        <path class="cls-9" d="M17.93,44.68v.16c.02.11,0,.19-.06.26-.05.07-.14.13-.28.19l-.1-.14v-.03c.07-.04.11-.08.14-.12.03-.04.04-.09.04-.15v-.14s-.05-.61-.05-.61h-.2s-.02,0-.02,0v-.21s.5-.02.5-.02l.03.8Z"/>
        <path class="cls-9" d="M19.12,44.77l.02.02v.22s-.82.04-.82.04v-.35s-.06-.83-.06-.83l.82-.04.02.02v.22s-.31,0-.31,0h-.22s0,.25,0,.25h.21s.2-.03.2-.03l.02.02v.22s-.23,0-.23,0h-.2s0,.11,0,.11v.15s.22-.01.22-.01l.32-.02Z"/>
        <path class="cls-9" d="M20.15,43.79v.23s-.25,0-.25,0h-.07s.02.58.02.58l.03.38h-.29s0-.34,0-.34l-.04-.6h-.07s-.24.03-.24.03l-.02-.02v-.23s.91-.04.91-.04l.02.02Z"/>
        <path class="cls-9" d="M21.09,43.77l-.03.27h-.04c-.05-.02-.1-.05-.15-.06-.05-.02-.09-.02-.13-.02-.04,0-.08.01-.1.04-.02.02-.04.05-.03.08,0,.03.02.06.05.08.03.02.08.04.15.07.07.03.13.05.18.07.05.02.09.06.12.1.03.04.05.1.06.17,0,.07-.01.13-.04.19-.03.06-.08.11-.15.15-.07.04-.16.06-.26.07-.06,0-.12,0-.19,0-.07,0-.13-.02-.2-.05l.03-.28.03-.02c.05.05.11.08.18.1.07.02.12.04.17.03.04,0,.08-.01.1-.04.03-.02.04-.05.04-.08,0-.03-.02-.06-.05-.08-.03-.02-.08-.04-.15-.06-.07-.03-.13-.05-.18-.08-.05-.02-.09-.06-.12-.1-.03-.04-.05-.1-.06-.17,0-.07.01-.14.05-.2.04-.06.09-.11.16-.15.07-.04.15-.06.25-.06.11,0,.22,0,.33.04Z"/>
        <path class="cls-9" d="M22.69,43.78c.1.09.16.23.17.4.01.21-.04.38-.14.49-.1.12-.26.18-.47.19-.12,0-.27,0-.45,0v-.35s-.06-.83-.06-.83l.52-.04c.18,0,.33.03.43.12ZM22.56,44.27c0-.14-.04-.24-.08-.3-.05-.06-.12-.08-.22-.08-.07,0-.14.01-.2.02l.02.57v.15s.09,0,.13,0c.04,0,.07,0,.1,0,.19,0,.28-.13.26-.37Z"/>
        <path class="cls-9" d="M23.93,44.53l.02.02v.22s-.82.04-.82.04v-.35s-.06-.83-.06-.83l.82-.04.02.02v.22s-.31,0-.31,0h-.22s0,.25,0,.25h.21s.2-.03.2-.03l.02.02v.22s-.23,0-.23,0h-.2s0,.11,0,.11v.15s.22-.01.22-.01l.32-.02Z"/>
        <path class="cls-9" d="M25.48,44.57h-.2s.03.32.03.32l-.02.02-.24.03-.02-.02v-.34s-.39.02-.39.02l-.2.02-.02-.03v-.2s.52-.87.52-.87h.29s.03.8.03.8h.19s.02.02.02.02v.22ZM24.68,44.36l.34-.02-.02-.46h-.02s-.29.48-.29.48Z"/>
        <path class="cls-9" d="M27.42,44.6h-.27s-.03-.35-.03-.35l-.06-.38h-.02s-.23.64-.23.64h-.23s-.26-.61-.26-.61h-.02s-.02.36-.02.36v.39s-.26.01-.26.01l.07-1.19.35-.02.06.17.2.49h.02s.16-.51.16-.51l.04-.18.34-.02.17,1.18Z"/>
        <path class="cls-9" d="M27.96,44.19l.03.38h-.3s0-.34,0-.34l-.05-.83.3-.02.02.81Z"/>
        <path class="cls-9" d="M29.05,44.29v.22s-.7.03-.7.03v-.35s-.06-.83-.06-.83l.3-.02.02.81v.14s.42-.02.42-.02l.02.02Z"/>
        <path class="cls-9" d="M29.96,44.25v.22s-.71.03-.71.03v-.35s-.06-.83-.06-.83l.3-.02.02.81v.14s.42-.02.42-.02l.02.02Z"/>
        <path class="cls-9" d="M30.44,44.06l.03.38h-.3s0-.34,0-.34l-.05-.83.3-.02.02.81Z"/>
        <path class="cls-9" d="M31.68,43.33c.1.1.16.24.17.42.01.2-.03.36-.13.48-.1.12-.25.18-.44.19-.18,0-.32-.04-.42-.14-.1-.1-.16-.24-.17-.43-.01-.2.03-.36.13-.47.1-.11.25-.18.44-.19.18,0,.32.04.42.13ZM31.04,43.53c-.04.05-.06.15-.05.27,0,.1.02.18.04.24.02.06.05.1.09.12.04.02.09.03.16.03.1,0,.17-.04.21-.09.04-.05.06-.15.05-.28,0-.1-.02-.18-.04-.24-.02-.06-.05-.1-.09-.12-.04-.02-.1-.03-.16-.03-.1,0-.16.03-.2.09Z"/>
        <path class="cls-9" d="M33.15,43.93l.03.38-.32.02-.51-.71h-.02s.01.32.01.32l.03.42h-.27s0-.33,0-.33l-.05-.84.32-.02.51.71h.02s-.05-.72-.05-.72l.27-.03.02.82Z"/>
        <path class="cls-9" d="M34.22,43.11l-.03.27h-.04c-.05-.02-.1-.05-.15-.06-.05-.02-.09-.02-.13-.02-.04,0-.08.01-.1.04-.02.02-.04.05-.03.08,0,.03.02.06.05.08.03.02.08.04.15.07.07.03.13.05.18.07.05.02.09.06.12.1.03.04.05.1.06.17,0,.07-.01.13-.04.19-.03.06-.08.11-.15.15-.07.04-.16.06-.26.07-.06,0-.12,0-.19,0s-.13-.02-.2-.05l.03-.28.03-.02c.05.04.11.08.18.1.07.02.12.04.17.03.04,0,.08-.01.1-.04.03-.02.04-.05.04-.08,0-.03-.02-.06-.05-.08-.03-.02-.08-.04-.15-.06-.07-.03-.13-.05-.18-.08-.05-.02-.09-.06-.12-.1-.03-.04-.05-.1-.06-.17,0-.07.01-.14.05-.2s.09-.11.16-.15c.07-.04.15-.06.25-.06.11,0,.22,0,.33.04Z"/>
        <path class="cls-9" d="M35.82,43.12c.1.09.16.23.17.4.01.21-.04.38-.14.49-.1.12-.26.18-.47.19-.12,0-.27,0-.45,0v-.35s-.06-.83-.06-.83l.52-.04c.18,0,.33.03.43.12ZM35.68,43.62c0-.14-.04-.24-.08-.3-.05-.06-.12-.08-.22-.08-.07,0-.14,0-.2.02l.02.57v.15s.09,0,.13,0c.04,0,.07,0,.1,0,.19,0,.28-.13.26-.37Z"/>
        <path class="cls-9" d="M37.06,43.88l.02.02v.22s-.82.04-.82.04v-.35s-.06-.83-.06-.83l.82-.04.02.02v.22s-.31,0-.31,0h-.22s0,.25,0,.25h.21s.2-.03.2-.03l.02.02v.22s-.23,0-.23,0h-.19s0,.11,0,.11v.15s.22-.01.22-.01l.32-.02Z"/>
        <path class="cls-9" d="M12.63,48.16l-.35.02-.43-1.17h.3s.04.15.04.15l.25.73h.02s.21-.74.21-.74l.02-.19h.29s-.35,1.19-.35,1.19Z"/>
        <path class="cls-9" d="M14.06,47.03c.1.1.16.24.17.43.01.2-.03.36-.14.48-.1.12-.25.18-.44.19-.18,0-.32-.04-.42-.14-.1-.1-.16-.24-.17-.43-.01-.2.03-.36.13-.47.1-.11.25-.18.44-.19.18,0,.32.04.42.13ZM13.43,47.23c-.04.05-.06.15-.05.27,0,.1.02.18.04.24.02.06.05.1.09.12.04.02.1.03.16.03.1,0,.17-.03.21-.09.04-.05.06-.14.05-.27,0-.1-.02-.18-.04-.24-.02-.06-.05-.1-.09-.12-.04-.02-.1-.03-.16-.03-.1,0-.16.03-.2.09Z"/>
        <path class="cls-9" d="M14.76,47.67l.03.38h-.3s0-.34,0-.34l-.05-.83.3-.02.02.81Z"/>
        <path class="cls-9" d="M15.9,46.83v.23s-.25,0-.25,0h-.07s.02.58.02.58l.03.38h-.29s0-.34,0-.34l-.03-.6h-.07s-.24.03-.24.03l-.02-.02v-.23s.91-.04.91-.04l.02.02Z"/>
        <path class="cls-9" d="M17.14,47.35v.18c.01.13-.02.24-.11.32-.09.08-.21.12-.38.13-.16,0-.29-.02-.38-.09-.09-.07-.14-.17-.14-.3v-.19s-.04-.6-.04-.6h.3s.02.73.02.73c0,.08.02.13.06.17.04.03.1.05.18.05.08,0,.14-.03.17-.06.04-.04.05-.09.05-.17l-.05-.74h.3s.02.59.02.59Z"/>
        <path class="cls-9" d="M18.48,47.8v.03c-.1.03-.19.06-.28.07l-.04-.03c-.1-.15-.17-.27-.22-.36h-.18s.03.39.03.39h-.3s0-.34,0-.34l-.05-.83.51-.03c.13,0,.24.02.31.08.08.06.12.15.12.26,0,.07-.01.14-.05.21-.04.07-.09.12-.16.17.11.15.22.27.31.38ZM17.75,47.29h.18c.05-.02.09-.05.11-.08.02-.03.03-.08.03-.13,0-.06-.02-.1-.06-.12-.03-.03-.09-.04-.16-.04h-.12s.01.37.01.37Z"/>
        <path class="cls-9" d="M19.52,47.57l.02.02v.22s-.82.04-.82.04v-.35s-.06-.83-.06-.83l.82-.04.02.02v.22s-.31,0-.31,0h-.22s0,.25,0,.25h.21s.2-.03.2-.03l.02.02v.22s-.23,0-.23,0h-.19s0,.11,0,.11v.15s.22-.01.22-.01l.32-.02Z"/>
        <path class="cls-9" d="M20.48,46.62l-.03.27h-.04c-.05-.02-.1-.05-.15-.06-.05-.02-.09-.02-.13-.02-.04,0-.08.01-.1.04-.02.02-.04.05-.03.08,0,.03.02.06.05.08.03.02.08.04.15.07.07.03.13.05.18.07.05.02.09.06.12.1.03.04.05.1.06.17,0,.07-.01.13-.04.19-.03.06-.08.11-.15.15-.07.04-.16.06-.26.07-.06,0-.12,0-.19,0-.07,0-.13-.02-.2-.05l.03-.28.03-.02c.05.04.11.08.18.1.07.02.12.04.17.03.04,0,.08-.01.11-.04.03-.02.04-.05.04-.08,0-.03-.02-.06-.05-.08-.03-.02-.08-.04-.15-.06-.07-.03-.13-.05-.18-.08-.05-.02-.09-.06-.12-.1-.03-.04-.05-.1-.06-.17,0-.07.01-.14.05-.2.04-.06.09-.11.16-.14.07-.04.15-.06.25-.06.11,0,.22,0,.33.04Z"/>
        <path class="cls-9" d="M20.94,47.47s.04.06.05.12c0,.05-.01.1-.04.13s-.07.05-.12.05c-.05,0-.09-.01-.12-.04-.03-.03-.04-.07-.05-.12,0-.05.01-.09.04-.13s.07-.05.12-.05c.05,0,.09.01.12.04Z"/>
      </g>
      <g>
        <g>
          <ellipse class="cls-8" cx="16" cy="8.16" rx="4.29" ry="7.68" transform="translate(-.66 1.46) rotate(-5.11)"/>
          <path class="cls-9" d="M18.53,7.93c.04.47.04.93,0,1.36-.15,1.87-1,3.31-2.13,3.41-1.4.13-2.72-1.81-2.94-4.31s.73-4.65,2.13-4.78c1.19-.11,2.32,1.27,2.77,3.23.08.35.14.71.17,1.1Z"/>
          <path class="cls-10" d="M18.53,7.93c.04.47.04.93,0,1.36l-2.54-1.13,2.36-1.32c.08.35.14.71.17,1.1Z"/>
        </g>
        <g>
          <ellipse class="cls-8" cx="27.96" cy="8.16" rx="4.29" ry="7.68" transform="translate(-.62 2.52) rotate(-5.11)"/>
          <path class="cls-9" d="M30.49,7.93c.04.47.04.93,0,1.36-.15,1.87-1,3.31-2.13,3.41-1.4.13-2.72-1.81-2.94-4.31s.73-4.65,2.13-4.78c1.19-.11,2.32,1.27,2.77,3.23.08.35.14.71.17,1.1Z"/>
          <path class="cls-10" d="M30.49,7.93c.04.47.04.93,0,1.36l-2.54-1.13,2.36-1.32c.08.35.14.71.17,1.1Z"/>
        </g>
      </g>
      <g>
        <path class="cls-3" d="M32.95,70.18c-1.32,1.26-3.15,2.16-5.59,2.38-2.2.2-3.98-.15-5.37-.84-5.41-2.67-5.2-10.44-2.68-11.19,3.58-1.08,2.95,5.68,8.33,4.79,5.37-.88,2.35-8.53,5.82-8.17,2.68.28,3.99,8.76-.51,13.03Z"/>
        <path class="cls-2" d="M32.95,70.18c-1.32,1.26-3.15,2.16-5.59,2.38-2.2.2-3.98-.15-5.37-.84l-.02-.02s3.85-3.16,6.11-2.89c2.24.26,4.87,1.38,4.87,1.38Z"/>
      </g>
    </g>
  </g>
</svg>