<?xml version="1.0" encoding="UTF-8"?>
<svg id="Calque_2" data-name="Calque 2" xmlns="http://www.w3.org/2000/svg" viewBox="0 0 1472.64 1464.02">
  <defs>
    <style>
      .cls-1 {
        fill: #585857;
      }

      .cls-1, .cls-2, .cls-3, .cls-4, .cls-5, .cls-6, .cls-7, .cls-8, .cls-9, .cls-10, .cls-11, .cls-12, .cls-13, .cls-14, .cls-15, .cls-16, .cls-17, .cls-18, .cls-19, .cls-20 {
        stroke: #1d1d1b;
      }

      .cls-1, .cls-3, .cls-4, .cls-5, .cls-7, .cls-8, .cls-9, .cls-12, .cls-15, .cls-17, .cls-18, .cls-19 {
        stroke-width: 5px;
      }

      .cls-1, .cls-5, .cls-6, .cls-7, .cls-8, .cls-9, .cls-12, .cls-15, .cls-18, .cls-19, .cls-20 {
        stroke-linecap: round;
        stroke-linejoin: round;
      }

      .cls-21 {
        letter-spacing: 0em;
      }

      .cls-2 {
        fill: #fece5c;
      }

      .cls-2, .cls-3, .cls-4, .cls-10, .cls-11, .cls-13, .cls-14, .cls-16, .cls-17 {
        stroke-miterlimit: 10;
      }

      .cls-2, .cls-6, .cls-10, .cls-11, .cls-13, .cls-14, .cls-16 {
        stroke-width: 3px;
      }

      .cls-22 {
        letter-spacing: -.12em;
      }

      .cls-3 {
        fill: #e073aa;
      }

      .cls-4, .cls-6, .cls-8, .cls-13 {
        fill: none;
      }

      .cls-23 {
        font-family: Chailce-Noggin-Regular, Chailce-Noggin;
        font-size: 90.76px;
      }

      .cls-23, .cls-24 {
        fill: #1d1d1b;
      }

      .cls-5 {
        fill: #6a696a;
      }

      .cls-25, .cls-7, .cls-14, .cls-20 {
        fill: #f7f6f6;
      }

      .cls-9 {
        fill: #c0b300;
      }

      .cls-10, .cls-15 {
        fill: #fff;
      }

      .cls-11 {
        fill: #fdc509;
      }

      .cls-12 {
        fill: #2a2a29;
      }

      .cls-26 {
        letter-spacing: -.22em;
      }

      .cls-16, .cls-17, .cls-18 {
        fill: #3d3d3c;
      }

      .cls-19 {
        fill: #8a8989;
      }

      .cls-20 {
        stroke-width: 6px;
      }
    </style>
  </defs>
  <g id="serveur_v2" data-name="serveur v2">
    <g>
      <g>
        <polygon class="cls-12" points="2.5 261.33 2.5 1238.15 388.97 1461.52 388.97 486.48 2.5 261.33"/>
        <polygon class="cls-1" points="844.58 225.87 844.58 1197.37 388.97 1461.52 388.97 486.47 844.58 225.87"/>
        <polygon class="cls-5" points="2.5 261.33 454.57 2.5 844.58 225.87 388.97 486.48 2.5 261.33"/>
        <polygon class="cls-19" points="422.17 543.5 422.17 633.91 811.39 410.54 811.39 321.9 422.17 543.5"/>
        <polygon class="cls-9" points="451.42 559.55 451.42 582.74 551.23 525.46 551.23 502.73 451.42 559.55"/>
        <ellipse class="cls-9" cx="580.29" cy="502.73" rx="16.96" ry="9.63" transform="translate(-145.23 753.91) rotate(-60)"/>
        <ellipse class="cls-9" cx="617.74" cy="481.45" rx="16.96" ry="9.63" transform="translate(-108.08 775.71) rotate(-60)"/>
        <polygon class="cls-19" points="422.17 637.83 422.17 728.24 811.39 504.87 811.39 416.23 422.17 637.83"/>
        <polygon class="cls-9" points="451.42 653.88 451.42 677.07 551.23 619.79 551.23 597.06 451.42 653.88"/>
        <ellipse class="cls-9" cx="580.29" cy="597.06" rx="16.96" ry="9.63" transform="translate(-226.92 801.07) rotate(-60)"/>
        <ellipse class="cls-9" cx="617.74" cy="575.78" rx="16.96" ry="9.63" transform="translate(-189.77 822.87) rotate(-60)"/>
        <polygon class="cls-19" points="422.17 732.9 422.17 823.31 811.39 599.94 811.39 511.3 422.17 732.9"/>
        <polygon class="cls-9" points="451.42 748.95 451.42 772.13 551.23 714.85 551.23 692.12 451.42 748.95"/>
        <ellipse class="cls-9" cx="580.29" cy="692.12" rx="16.96" ry="9.63" transform="translate(-309.25 848.61) rotate(-60)"/>
        <ellipse class="cls-9" cx="617.74" cy="670.85" rx="16.96" ry="9.63" transform="translate(-272.1 870.4) rotate(-60)"/>
        <polygon class="cls-19" points="422.17 825.42 422.17 915.84 811.39 692.46 811.39 603.82 422.17 825.42"/>
        <polygon class="cls-9" points="451.42 841.48 451.42 864.66 551.23 807.38 551.23 784.65 451.42 841.48"/>
        <ellipse class="cls-9" cx="580.29" cy="784.65" rx="16.96" ry="9.63" transform="translate(-389.38 894.87) rotate(-60)"/>
        <ellipse class="cls-9" cx="617.74" cy="763.38" rx="16.96" ry="9.63" transform="translate(-352.23 916.67) rotate(-60)"/>
        <polygon class="cls-19" points="422.17 1208.82 422.17 1299.23 811.39 1075.86 811.39 987.22 422.17 1208.82"/>
        <polygon class="cls-9" points="451.42 1224.87 451.42 1248.06 551.23 1190.78 551.23 1168.05 451.42 1224.87"/>
        <ellipse class="cls-9" cx="580.29" cy="1168.05" rx="16.96" ry="9.63" transform="translate(-721.41 1086.57) rotate(-60)"/>
        <ellipse class="cls-9" cx="617.74" cy="1146.77" rx="16.96" ry="9.63" transform="translate(-684.26 1108.36) rotate(-60)"/>
        <polygon class="cls-19" points="422.17 1303.89 422.17 1394.3 811.39 1170.93 811.39 1082.29 422.17 1303.89"/>
        <polygon class="cls-9" points="451.42 1319.94 451.42 1343.13 551.23 1285.84 551.23 1263.11 451.42 1319.94"/>
        <ellipse class="cls-9" cx="580.29" cy="1263.11" rx="16.96" ry="9.63" transform="translate(-803.74 1134.1) rotate(-60)"/>
        <ellipse class="cls-9" cx="617.74" cy="1241.84" rx="16.96" ry="9.63" transform="translate(-766.59 1155.9) rotate(-60)"/>
        <g>
          <ellipse class="cls-7" cx="516.2" cy="424.37" rx="60.4" ry="124.46" transform="translate(-24.02 31.03) rotate(-3.36)"/>
          <path class="cls-24" d="M551.97,421.65c.48,7.58.35,15.03-.26,22.01-2.59,30.33-14.82,53.27-30.84,54.52-19.76,1.55-37.87-30.28-40.44-70.94-2.59-40.83,11.33-75.16,31.09-76.7,16.76-1.31,32.34,21.36,38.27,53.27,1.11,5.63,1.79,11.63,2.18,17.83Z"/>
          <path class="cls-25" d="M551.97,421.65c.48,7.58.35,15.03-.26,22.01l-35.51-19.21,33.59-20.63c1.11,5.63,1.79,11.63,2.18,17.83Z"/>
        </g>
        <g>
          <ellipse class="cls-7" cx="670.94" cy="345.72" rx="60.4" ry="124.46" transform="translate(-19.14 39.98) rotate(-3.36)"/>
          <path class="cls-24" d="M706.71,342.99c.48,7.58.35,15.03-.26,22.01-2.59,30.33-14.82,53.27-30.84,54.52-19.76,1.55-37.87-30.28-40.44-70.94-2.59-40.83,11.33-75.16,31.09-76.7,16.76-1.31,32.34,21.36,38.27,53.27,1.11,5.63,1.79,11.63,2.18,17.83Z"/>
          <path class="cls-25" d="M706.71,342.99c.48,7.58.35,15.03-.26,22.01l-35.51-19.21,33.59-20.63c1.11,5.63,1.79,11.63,2.18,17.83Z"/>
        </g>
        <path class="cls-18" d="M174.97,1013.57c12.92-7.06,32.55-14.24,32.55-14.24,0,0-14.24-27.05-11.25-43.8,3.11-16.76,40.81-11.73,33.15-44.88-5.39-23.46-64.15,13.28-70.25,34.23-6.1,20.82,15.8,68.7,15.8,68.7Z"/>
        <path class="cls-15" d="M152.7,1065.39c-3.83,13.05,4.55,39.37,16.04,56.49,11.37,17.23,49.19,32.55,57.69,20.7,12.92,6.46,33.15-.84,33.99-15.32,0,0,11.73,9.57,27.89-9.57,16.04-19.03-7.66-39.73-7.66-39.73,0,0,11.85-9.1,9.93-27.41-1.91-18.43-37.1-34.83-37.1-34.83,0,0,2.27-9.93-7.3-16.4-9.46-6.46-38.66,0-38.66,0,0,0-19.63,7.18-32.55,14.24-11.73,6.46-31.48,20.11-32.67,25.49-1.08,5.27-.72,24.06,10.41,26.33Z"/>
        <path class="cls-4" d="M152.7,1065.39s11.6-30.36,42.92-39.91c31.32-9.55,57.85-9.76,57.85-9.76"/>
        <path class="cls-8" d="M269.72,1059.86s10.77,11.95,10.92,18.1c.16,6.15-2.52,15.89-2.52,15.89"/>
        <path class="cls-8" d="M260.42,1127.27s-10.17-4.58-13.42-14.51"/>
        <path class="cls-8" d="M226.43,1142.59s-12.47-11.3-12.09-19.9"/>
        <path class="cls-17" d="M718.09,954c-20.54,16.14-44.72,29.82-57.14,34.88-11.78,4.71-31.97,14.9-54.32,22.78-32.86,11.62-69.91,5.29-79.52-24.44-6.9-21.34,27.6-57.09,65.07-79.68,36.66-22.09,84.21-27.6,121.84-11.29,24.57,10.65,31.53,36.34,4.06,57.74Z"/>
        <path class="cls-3" d="M718.09,954c-20.54,16.14-44.72,29.82-57.14,34.88-11.78,4.71-31.97,14.9-54.32,22.78,0,0-3.49-26.99,37.69-50.53,41.18-23.53,73.77-7.14,73.77-7.14Z"/>
      </g>
      <g>
        <path class="cls-19" d="M1179.82,948.44v16.98s-57.29-11.41-75.87-13.45c-18.58-2.04-57.29,2.71-72.77-9.73-15.49-12.44-52.65-90.21-72.78-93.9-20.13-3.7-113.82,4.05-113.82,4.05v-20.13s89.05-13.94,124.66,0c35.61,13.93,41.81,102.19,88.26,99.09,46.45-3.09,122.32,17.09,122.32,17.09Z"/>
        <polygon class="cls-1" points="1179.82 965.42 1179.82 991.23 1353.24 991.23 1353.24 923.87 1179.82 923.87 1179.82 965.42"/>
        <polygon class="cls-7" points="1470.14 624.26 1470.14 878.19 1282.01 878.19 1282.01 923.87 1251.05 923.87 1251.05 878.19 1062.92 878.19 1062.92 624.26 1470.14 624.26"/>
        <path class="cls-2" d="M1149.74,751.76c-1.67,2.69-.12,6.25,2.98,6.83l35.91,6.91c3.39.65,1.98,4.17-.25,6.81l-20.97,24.67-3.95,4.65-44.48,47.11c-3.24,3.83,1.36-7.06,3.01-11.81l15.66-44.69c.92-2.61-.7-5.42-3.41-5.93l-.97-.19-6.17-1.19-23.96-4.6c-2.81-.53-.61-2.76.43-5.4l40.94-101.98c.82-2.01,2.93-3.17,5.06-2.76l39.1,7.51c3.12.61,5.42,2.95,3.75,5.66l-42.68,68.4Z"/>
        <g>
          <ellipse class="cls-14" cx="1125.39" cy="710.88" rx="18.59" ry="10.38" transform="translate(214.93 1681.91) rotate(-79.12)"/>
          <path class="cls-24" d="M1131.44,712.05c-.21,1.11-.52,2.18-.9,3.16-1.61,4.26-4.53,7.03-7.24,6.51-3.34-.64-5.12-6.02-3.97-12,1.15-6,4.8-10.34,8.14-9.7,2.84.54,4.54,4.5,4.29,9.36-.03.86-.15,1.76-.33,2.67Z"/>
          <path class="cls-25" d="M1131.44,712.05c-.21,1.11-.52,2.18-.9,3.16l-5.16-4.33,6.38-1.5c-.03.86-.15,1.76-.33,2.67Z"/>
        </g>
        <g>
          <ellipse class="cls-14" cx="1166.94" cy="719.18" rx="18.59" ry="10.38" transform="translate(240.49 1729.44) rotate(-79.12)"/>
          <path class="cls-24" d="M1172.99,720.35c-.21,1.11-.52,2.18-.9,3.16-1.61,4.26-4.53,7.03-7.24,6.51-3.34-.64-5.12-6.02-3.97-12,1.15-6,4.8-10.34,8.14-9.7,2.84.54,4.54,4.5,4.29,9.36-.03.86-.15,1.76-.33,2.67Z"/>
          <path class="cls-25" d="M1172.99,720.35c-.21,1.11-.52,2.18-.9,3.16l-5.16-4.33,6.38-1.5c-.03.86-.15,1.76-.33,2.67Z"/>
        </g>
        <path class="cls-6" d="M1117.36,761.72c9.42,7.27,23.72-1.63,23.72-1.63"/>
        <path class="cls-6" d="M1141.33,755.18c1.07-.11,4.88,4.09,3.72,6.28"/>
        <path class="cls-16" d="M1133.28,786.12s-8.85,10.81-14.11,19.72c-4.56,7.72-5.54,13.58-6.52,15.14-1.02,1.62-2.18,2.76-3.41,2.59-1.57-.22-1.62-2.32-1.14-4.7.32-1.57,1.14-7.62,5.6-15.36,4.87-8.46,13.41-18.59,13.41-18.59l6.17,1.19Z"/>
        <path class="cls-11" d="M1113.19,826.05c0,.63-.41,7.12-1.16,7.72-2.78,1.5-27.07.99-31.91-.9.19-2.25.63-4.75.63-4.75,0,0,3-7.55,11.19-7.67,8.21-.12,9.59,1.19,9.59,1.19,0,0,3.24,5.04,5.57,5.45,2.32.41,6.1-1.04,6.1-1.04Z"/>
        <path class="cls-10" d="M1112.03,833.77c.07.7-.7,3.1-2.54,3.7-1.86.63-25.88,1.79-29.3-1.38-.22-.58-.19-1.86-.07-3.22,4.84,1.89,29.13,2.4,31.91.9Z"/>
        <path class="cls-10" d="M1113.19,826.05s-3.78,1.45-6.1,1.04c-2.32-.41-5.57-5.45-5.57-5.45,0,0,1.69-2.01,2.71-2.32.99-.29,3.87-.44,3.87-.44-.48,2.37-.44,4.48,1.14,4.7,1.23.17,2.4-.97,3.41-2.59,0,0,2.78,2.98.53,5.06Z"/>
        <line class="cls-13" x1="1080.12" y1="832.88" x2="1080.09" y2="832.88"/>
        <path class="cls-16" d="M1176.04,823.57c-1.23.17-2.4-.97-3.41-2.59-.97-1.57-1.94-7.41-6.51-15.16-.8-1.36-1.69-2.78-2.64-4.19l3.95-4.65c1.48,2.15,2.93,4.41,4.16,6.54,4.45,7.72,5.28,13.78,5.59,15.35.48,2.37.44,4.48-1.14,4.7Z"/>
        <path class="cls-11" d="M1172.1,826.05c0,.63.41,7.12,1.16,7.72,2.78,1.5,27.07.99,31.91-.9-.19-2.25-.63-4.75-.63-4.75,0,0-3-7.55-11.19-7.67-8.21-.12-9.59,1.19-9.59,1.19,0,0-3.24,5.04-5.57,5.45-2.32.41-6.1-1.04-6.1-1.04Z"/>
        <path class="cls-10" d="M1173.26,833.77c-.07.7.7,3.1,2.54,3.7,1.86.63,25.88,1.79,29.3-1.38.22-.58.19-1.86.07-3.22-4.84,1.89-29.13,2.4-31.91.9Z"/>
        <path class="cls-10" d="M1172.1,826.05s3.78,1.45,6.1,1.04c2.32-.41,5.57-5.45,5.57-5.45,0,0-1.69-2.01-2.71-2.32-.99-.29-3.87-.44-3.87-.44.48,2.37.44,4.48-1.14,4.7-1.23.17-2.4-.97-3.41-2.59,0,0-2.78,2.98-.53,5.06Z"/>
        <polyline class="cls-20" points="1214.64 704.01 1260.5 749.87 1218.55 791.83"/>
        <text class="cls-23" transform="translate(1279.49 764.57)"><tspan class="cls-26" x="0" y="0">l</tspan><tspan class="cls-22" x="19.97" y="0">y</tspan><tspan class="cls-21" x="63.17" y="0">on</tspan></text>
      </g>
    </g>
  </g>
</svg>