<?xml version="1.0" encoding="UTF-8"?>
<svg id="Calque_2" data-name="Calque 2" xmlns="http://www.w3.org/2000/svg" viewBox="0 0 1107.62 1075.73">
  <defs>
    <style>
      .cls-1 {
        fill: #e073aa;
      }

      .cls-1, .cls-2, .cls-3, .cls-4, .cls-5 {
        stroke: #1d1d1b;
        stroke-miterlimit: 10;
      }

      .cls-1, .cls-3, .cls-4, .cls-5 {
        stroke-width: 5px;
      }

      .cls-6, .cls-2 {
        fill: #1d1d1b;
      }

      .cls-2 {
        stroke-width: .5px;
      }

      .cls-7, .cls-4 {
        fill: #f7f6f6;
      }

      .cls-3 {
        fill: #fff;
      }

      .cls-5 {
        fill: #3d3d3c;
      }
    </style>
  </defs>
  <g id="France">
    <g>
      <g>
        <path class="cls-3" d="M1035.29,1032.22c-26.46.41-10.88-14.8-12-19.98-.84-3.88-16.63-7.36-18.5-14.97-2.26-9.17,11.44-12.81,11.53-20.92.06-5.64-18.12-15.99-16.26-27.9.79-5.08,6.56-8.53,8.59-12.93,3.19-6.89,1.5-12.14,7.53-18.58,3.12-3.33,27.24-18.86,31.64-20.58,4.72-1.84,13.12-1.36,13.61-1.84,1.84-1.76-10.26-45.22,14.86-39.9,15.99,3.38,13.23,38.71,16.59,52.35,5.96,24.2,15.56,38.29,11.11,66.92-1.41,9.09-9.64,15.02-11.22,22.01-2.13,9.44.31,21.6-1.11,32.12-.75,5.57-10.03,40.65-12.19,42.38-9.39,7.5-13.91-2.03-19.78-4.43-16.44-6.74-38.54-10.14-24.38-33.75Z"/>
        <path class="cls-3" d="M221.1,158.66c.4-.45,9.86-1.77,11.92-1.33,5.18,1.1,10.08,7.52,15.52,8.42,8.91,1.46,18.68-6.16,24.34,4.05,3.56,6.42.52,14.6,6.59,19.5,5.14,4.15,61.02,20.2,65.74,18.89,6.8-1.88,17.13-30.74,27.96-38.69,19.78-14.52,70.65-21.22,84.06-39.37,14.88-20.14,7.7-55.14,10.61-77.22,2.26-17.17,58.25-36.99,72.43-34.29,17.12,3.25,10.02,34.58,17.88,39.33,6.31,3.81,14.54-7.04,18.34-8.12,14.15-4.04,16,19.73,21.94,27.04,5.4,6.65,16.22,5.6,21.36,9.49,4.91,3.71,4.04,11.79,5.1,12.7,2.79,2.42,22.25-3.29,30.54,3.88,10.35,8.95,3.56,31.39,11.92,35.61,12.54,6.33,15.9-14.31,28.48-16.85,14.99-3.03,10.76,12.83,12.43,21,3.31,16.14,14.05,11.64,23.35,19.36,6.88,5.72,14.33,26.29,24.18,24.75,4.39-.68,7.05-4.82,14.73-4.56,5.93.2,43.54,6.5,48.77,8.43,13.37,4.95,17.12,16.55,25.42,22.06,22.84,15.16,73.27,14.47,99.13,24.3,26.79,10.18-6.94,32.15-14.03,45.2-7.48,13.77-3.86,18.94-6.64,31.34-2.98,13.32-13.07,26.85-13.53,41.28-.46,14.67,8.42,34.31.84,48.12-9.27,16.89-25.58,3.68-38.97,9.69-.45,4.4,7.86,3.02,9.14,5.05,8.11,12.87-20.28,29.8-28.21,38.77-15.82,17.89-14.4,26.75-23.25,45.59-7.02,14.94-28.19,31.81-28.96,47.05-.18,3.53-.37,4.27,3.62,3.58,9.63-1.65,7.64-16.81,11.97-23.64,5.94-9.37,41.69-17.47,48.7-7.98,6.18,8.36,2.75,21.88,5.06,29.94,1.85,6.44,18.26,14.95,18.46,21.77.42,14.22-34.39,15.96-8.32,41.67,10.8,10.65,25.76,13.11,18.37,32.51-5.93,15.55-18.88,14.5-31.48,20.84-3.01,1.51-5.49-.24-4.34,4.38,2.94,11.87,25.08,14.23,27.83,22.13,4.16,11.97-17.54,39.11-2.07,56.63,14.28,16.16,57.72,10.87,60.74,15.21,7.64,10.95-8.19,22.91-10.26,30.4-1.34,4.83.32,9.91-1.79,14.83-3.69,8.58-36.61,25.21-45.41,34.11-26.85,27.14-16.72,43.19-66.41,51.1-30.17,4.8-23.59,1.33-46.27-10.14-10.84-5.48-40.2-20.95-50.45-20.31-6.14.38-12.11,4.68-18.77,4.1-17.84-1.55-42.33-21.73-58.75-17.42-6.48,1.7-34.96,22.08-41.42,27.5-14.56,12.19-28.94,25.71-27.43,46.16.94,12.76,21.3,35.9,11.35,45.77-6.51,6.46-18.79.38-26.38.69-8.17.34-18.63,7.21-26.24,6.88-7.07-.31-23.61-9.91-28.37-8.91-3.91.82-8.1,8.85-18.98,8.26-22.16-1.2-19.81-27.2-25.22-31.31-2.61-1.99-12.61-2.62-17.17-4.2-14.13-4.88-35.12-15.12-48.41-18.08-6.77-1.51-.64,12.38-7.24,16.57-18.22,11.54-51.81-9.35-69.09-11.61-7.26-.95-11.79,2.1-18.22,2.01-19.47-.27-23.36-15.86-38.74-23.18-10.46-4.98-44.58-10.23-49.84-15.44-4.89-4.85-1.64-18.79-3.15-20.59-.51-.61-10.7-1.67-15.27-4.91-23.57-16.69,12.3-28.87,17.96-37.36,8.39-12.6,19-83.11,21.24-101.58,5.72-47.28,10.27-94.73,14.31-142.35.81-9.56,7.2-24.23,4.33-32.89-1.17-3.53-26.01-12.78-32.95-19.29-6.65-6.24-10.34-16.17-15.49-22.49-7.49-9.17-28.6-27.92-26.75-38.72,1-5.79,9.24-14.23,9.06-19.66-.35-10.22-48.35-43.58-58.55-50.53-14.13-9.63-58.08-39.56-73.17-38.62-8.86.55-13.94,11.52-24.91,6.17-6.57-3.2-6.39-15.04-10.17-19.55-4.13-4.93-19.12-7.92-21.48-13.06-8.74-19.03,16.77-10.98,26.86-19.64-9.83-9.54-29.12-5.33-28.58-23.61.36-12.15,8.29-19.35,18.36-24.63,12.97-6.81,94.52-23.26,108.82-21.85,20.52,2.03,16.76,14.57,25.26,26.97,12.64,18.44,20.74-.48,38.89-.88,30.85-.68,59.91,24.65,47.84-28.88-2.49-11.05-20.66-49.28-20.66-52.93,0-5.19-1.14-33.13,0-34.42Z"/>
      </g>
      <g>
        <ellipse class="cls-4" cx="621.78" cy="90.11" rx="48.9" ry="87.6"/>
        <path class="cls-2" d="M650.82,90.16c0,5.35-.49,10.57-1.34,15.43-3.65,21.14-14.7,36.57-27.7,36.57-16.04,0-29.04-23.33-29.04-52s13-52.13,29.04-52.13c13.61,0,25.03,16.77,28.19,39.49.61,4.01.85,8.26.85,12.64Z"/>
        <path class="cls-7" d="M650.82,90.16c0,5.35-.49,10.57-1.34,15.43l-27.7-15.43,28.19-12.64c.61,4.01.85,8.26.85,12.64Z"/>
      </g>
      <g>
        <ellipse class="cls-4" cx="436.61" cy="90.1" rx="48.9" ry="87.6"/>
        <path class="cls-6" d="M465.65,90.15c0,5.35-.49,10.57-1.34,15.43-3.65,21.14-14.7,36.57-27.7,36.57-16.04,0-29.04-23.33-29.04-52s13-52.13,29.04-52.13c13.61,0,25.03,16.77,28.19,39.49.61,4.01.85,8.26.85,12.64Z"/>
        <path class="cls-7" d="M465.65,90.15c0,5.35-.49,10.57-1.34,15.43l-27.7-15.43,28.19-12.64c.61,4.01.85,8.26.85,12.64Z"/>
      </g>
      <g>
        <path class="cls-6" d="M349.05,384.8l.45.62-.51,5.7h-22.8l.4-10.83-.4-25.51h23.02l.45.62-.56,5.7-8.69-.28-6.55.06-.17,8.75,6.26.11,5.92-.17.45.56-.51,5.7-6.43-.17-5.81.06-.06,3.89.17,5.47,6.38.06,8.97-.34Z"/>
        <path class="cls-6" d="M380.15,382.09l.28,9.03h-7.73l-11.4-17.66h-.4l-.06,7.67.23,9.99h-6.43l.28-8.35-.28-20.14h7.67l11.4,17.66h.51l-.23-17.38,6.55-.45-.4,19.64Z"/>
        <path class="cls-6" d="M405.2,360.88l-.17,9.82,5.08.06,6.15-.17.51.56-.56,5.7-6.71-.17-4.57.06-.06,2.88.34,11.51h-7.67l.4-10.83-.4-25.51h21.61l.45.62-.56,5.75-8.63-.34-5.19.06Z"/>
        <path class="cls-6" d="M447.01,389.49l-.06.79c-2.33.71-4.63,1.15-6.88,1.3l-1.02-.68c-2.11-3.65-3.74-6.64-4.91-8.97h-4.34v.06l.28,9.14h-7.11l.28-8.46-.28-20.03,12.3-.06c3.2,0,5.67.74,7.42,2.23,1.75,1.49,2.62,3.6,2.62,6.35,0,1.77-.47,3.41-1.41,4.94-.94,1.52-2.26,2.79-3.95,3.81,2.52,3.65,4.87,6.85,7.05,9.59ZM429.91,376.51l4.23.23c1.28-.41,2.22-1.02,2.82-1.81.6-.79.9-1.81.9-3.05,0-1.35-.4-2.36-1.19-3.02s-2.03-1.02-3.72-1.1l-2.88.11-.17,8.63Z"/>
        <path class="cls-6" d="M476.86,391.12h-7.17l-.79-4.12-.51-1.64-5.76-.06-5.08.11-.4,1.18-.85,4.51h-6.94l9.99-28.5h8.41l9.08,28.5ZM466.87,380.01l-3.22-10.89h-.45l-3.78,10.89,3.67.06,3.78-.06Z"/>
        <path class="cls-6" d="M507.9,382.09l.28,9.03h-7.73l-11.4-17.66h-.4l-.06,7.67.23,9.99h-6.43l.28-8.35-.28-20.14h7.67l11.4,17.66h.51l-.23-17.38,6.55-.45-.4,19.64Z"/>
        <path class="cls-6" d="M536.34,363.7l-1.24,5.98-.56.28c-.87-.6-1.88-1.07-3.05-1.41-1.17-.34-2.33-.51-3.5-.51-2.3,0-4.01.67-5.14,2-1.13,1.34-1.69,3.43-1.69,6.29,0,6.21,2.39,9.31,7.17,9.31,1.13,0,2.29-.15,3.5-.45,1.2-.3,2.29-.71,3.27-1.24l.62.34-.56,5.92c-2.22.9-4.65,1.35-7.28,1.35-4.63,0-8.15-1.24-10.55-3.72-2.41-2.48-3.61-6.06-3.61-10.72s1.28-8.41,3.84-11c2.56-2.6,6.19-3.89,10.89-3.89,2.82,0,5.45.49,7.9,1.47Z"/>
        <path class="cls-6" d="M561.16,385.37l.45.45-.51,5.3h-19.52l.28-8.46-.28-20.03h19.81l.4.56-.45,5.25-7.34-.28h-5.3l-.11,5.76,5.08.06,4.91-.17.39.51-.45,5.36-5.36-.17h-4.68l-.06,2.48.11,3.61h4.97l7.67-.23Z"/>
        <path class="cls-6" d="M573.8,388.53c0,3.27-2.28,6.53-6.83,9.76l-2.43-2.14-.06-.56c2.07-1.73,3.1-3.57,3.1-5.53,0-1.28-.6-2.41-1.81-3.39l.06-.62c1.73-1.05,3.54-1.84,5.42-2.37,1.69,1.35,2.54,2.97,2.54,4.85Z"/>
        <path class="cls-6" d="M605.74,385.82l-.45,5.3h-16.76l.34-8.46-.34-20.03h7.22l-.4,19.35.11,3.33h9.88l.4.51Z"/>
        <path class="cls-6" d="M635.2,391.12h-7.17l-.79-4.12-.51-1.64-5.76-.06-5.08.11-.4,1.18-.85,4.51h-6.94l9.99-28.5h8.41l9.08,28.5ZM625.21,380.01l-3.22-10.89h-.45l-3.78,10.89,3.67.06,3.78-.06Z"/>
        <path class="cls-6" d="M669,364.86c1.73,1.52,2.6,3.72,2.6,6.57,0,3.31-1.15,5.96-3.44,7.96-2.3,1.99-5.36,2.99-9.2,2.99h-2.88l.28,8.75h-7.11l.28-8.46-.28-20.03,12.3-.06c3.23,0,5.72.76,7.45,2.29ZM663.18,375.44c.64-.83.96-1.94.96-3.33s-.4-2.5-1.21-3.22c-.81-.71-2.06-1.11-3.75-1.19l-2.82.11-.17,9.31,4.06.17c1.32-.41,2.29-1.03,2.93-1.86Z"/>
        <path class="cls-6" d="M698.39,391.12h-7.17l-.79-4.12-.51-1.64-5.76-.06-5.08.11-.4,1.18-.85,4.51h-6.94l9.99-28.5h8.41l9.08,28.5ZM688.41,380.01l-3.22-10.89h-.45l-3.78,10.89,3.67.06,3.78-.06Z"/>
        <path class="cls-6" d="M727.96,389.49l-.06.79c-2.33.71-4.63,1.15-6.88,1.3l-1.02-.68c-2.11-3.65-3.74-6.64-4.91-8.97h-4.34v.06l.28,9.14h-7.11l.28-8.46-.28-20.03,12.3-.06c3.2,0,5.67.74,7.42,2.23,1.75,1.49,2.62,3.6,2.62,6.35,0,1.77-.47,3.41-1.41,4.94-.94,1.52-2.26,2.79-3.95,3.81,2.52,3.65,4.87,6.85,7.05,9.59ZM710.87,376.51l4.23.23c1.28-.41,2.22-1.02,2.82-1.81.6-.79.9-1.81.9-3.05,0-1.35-.4-2.36-1.19-3.02s-2.03-1.02-3.72-1.1l-2.88.11-.17,8.63Z"/>
        <path class="cls-6" d="M751.83,363.19l-.4,5.42-5.76-.4h-1.64l-.17,13.77.23,9.14h-7.05l.28-8.46-.11-14.45h-1.64l-5.87.4-.45-.56.4-5.42h21.78l.4.56Z"/>
        <path class="cls-6" d="M287.97,433.58c2.35,2.31,3.53,5.62,3.53,9.9,0,5.04-1.33,8.92-3.98,11.62-2.65,2.71-6.46,4.06-11.43,4.06-2.9,0-6.49-.11-10.78-.34l.28-8.46-.28-20.03,12.53-.23c4.4,0,7.78,1.16,10.13,3.47ZM284.16,445.18c0-3.35-.55-5.75-1.64-7.2-1.09-1.45-2.84-2.17-5.25-2.17-1.77,0-3.39.08-4.85.23l-.28,13.66.11,3.67c.9.11,1.82.21,2.77.28.94.08,1.73.11,2.37.11,4.51,0,6.77-2.86,6.77-8.58Z"/>
        <path class="cls-6" d="M316.78,453.08l.45.45-.51,5.3h-19.52l.28-8.46-.28-20.03h19.81l.4.56-.45,5.25-7.34-.28h-5.3l-.11,5.76,5.08.06,4.91-.17.39.51-.45,5.36-5.36-.17h-4.68l-.06,2.48.11,3.61h4.97l7.67-.23Z"/>
        <path class="cls-6" d="M348.43,453.53l-.45,5.3h-16.76l.34-8.46-.34-20.03h7.22l-.4,19.35.11,3.33h9.88l.4.51Z"/>
        <path class="cls-6" d="M358.31,432.12c.53.85.79,1.89.79,3.13,0,2.86-1.73,5.94-5.19,9.25l-2.6-1.69-.11-.56c1.5-1.66,2.26-3.25,2.26-4.8,0-.9-.17-1.67-.51-2.31-.34-.64-.92-1.2-1.75-1.69v-.62c1.58-1.2,3.14-2.16,4.68-2.88,1.09.6,1.9,1.33,2.43,2.17Z"/>
        <path class="cls-6" d="M384.6,453.08l.45.45-.51,5.3h-19.52l.28-8.46-.28-20.03h19.81l.4.56-.45,5.25-7.34-.28h-5.3l-.11,5.76,5.08.06,4.91-.17.39.51-.45,5.36-5.36-.17h-4.68l-.06,2.48.11,3.61h4.97l7.67-.23Z"/>
        <path class="cls-6" d="M422.75,458.84h-6.38l-.4-8.63-.96-9.31h-.45l-6.26,15.12h-5.47l-5.59-15.12h-.45l-1.02,8.63-.62,9.31h-6.04l3.05-28.5h8.35l1.13,4.18,4.12,12.08h.45l4.46-12.02,1.24-4.23h8.18l2.65,28.5Z"/>
        <path class="cls-6" d="M449.21,432.57c1.73,1.52,2.6,3.72,2.6,6.57,0,3.31-1.15,5.96-3.44,7.96-2.3,1.99-5.36,2.99-9.2,2.99h-2.88l.28,8.75h-7.11l.28-8.46-.28-20.03,12.3-.06c3.23,0,5.72.76,7.45,2.29ZM443.4,443.15c.64-.83.96-1.94.96-3.33s-.4-2.5-1.21-3.22c-.81-.71-2.06-1.11-3.75-1.19l-2.82.11-.17,9.31,4.06.17c1.32-.41,2.29-1.03,2.93-1.86Z"/>
        <path class="cls-6" d="M481.37,457.2l-.06.79c-2.33.71-4.63,1.15-6.88,1.3l-1.02-.68c-2.11-3.65-3.74-6.64-4.91-8.97h-4.34v.06l.28,9.14h-7.11l.28-8.46-.28-20.03,12.3-.06c3.2,0,5.67.74,7.42,2.23,1.75,1.49,2.62,3.6,2.62,6.35,0,1.77-.47,3.41-1.41,4.94-.94,1.52-2.26,2.79-3.95,3.81,2.52,3.65,4.87,6.85,7.05,9.59ZM464.28,444.22l4.23.23c1.28-.41,2.22-1.02,2.82-1.81.6-.79.9-1.81.9-3.05,0-1.35-.4-2.36-1.19-3.02s-2.03-1.02-3.72-1.1l-2.88.11-.17,8.63Z"/>
        <path class="cls-6" d="M506.48,453.08l.45.45-.51,5.3h-19.52l.28-8.46-.28-20.03h19.81l.4.56-.45,5.25-7.34-.28h-5.3l-.11,5.76,5.08.06,4.91-.17.39.51-.45,5.36-5.36-.17h-4.68l-.06,2.48.11,3.61h4.97l7.67-.23Z"/>
        <path class="cls-6" d="M519.46,449.7l.28,9.14h-7.11l.28-8.46-.28-20.03h7.22l-.4,19.35Z"/>
        <path class="cls-6" d="M553.88,449.81l.28,9.03h-7.73l-11.4-17.66h-.4l-.06,7.67.23,9.99h-6.43l.28-8.35-.28-20.14h7.67l11.4,17.66h.51l-.23-17.38,6.55-.45-.4,19.64Z"/>
        <path class="cls-6" d="M581.82,430.91l-.4,5.42-5.76-.4h-1.64l-.17,13.77.23,9.14h-7.05l.28-8.46-.11-14.45h-1.64l-5.87.4-.45-.56.4-5.42h21.78l.4.56Z"/>
        <path class="cls-6" d="M606.59,453.08l.45.45-.51,5.3h-19.52l.28-8.46-.28-20.03h19.81l.4.56-.45,5.25-7.34-.28h-5.3l-.11,5.76,5.08.06,4.91-.17.39.51-.45,5.36-5.36-.17h-4.68l-.06,2.48.11,3.61h4.97l7.67-.23Z"/>
        <path class="cls-6" d="M641.63,431.41l-1.24,5.98-.56.28c-.87-.6-1.88-1.07-3.05-1.41-1.17-.34-2.33-.51-3.5-.51-2.3,0-4.01.67-5.14,2-1.13,1.34-1.69,3.43-1.69,6.29,0,6.21,2.39,9.31,7.17,9.31,1.13,0,2.29-.15,3.5-.45,1.2-.3,2.29-.71,3.27-1.24l.62.34-.56,5.92c-2.22.9-4.65,1.35-7.28,1.35-4.63,0-8.15-1.24-10.55-3.72-2.41-2.48-3.61-6.06-3.61-10.72s1.28-8.41,3.84-11c2.56-2.6,6.19-3.89,10.89-3.89,2.82,0,5.45.49,7.9,1.47Z"/>
        <path class="cls-6" d="M670.97,458.84h-7.17l-.79-4.12-.51-1.64-5.76-.06-5.08.11-.4,1.18-.85,4.51h-6.94l9.99-28.5h8.41l9.08,28.5ZM660.98,447.72l-3.22-10.89h-.45l-3.78,10.89,3.67.06,3.78-.06Z"/>
        <path class="cls-6" d="M700.54,457.2l-.06.79c-2.33.71-4.63,1.15-6.88,1.3l-1.02-.68c-2.11-3.65-3.74-6.64-4.91-8.97h-4.34v.06l.28,9.14h-7.11l.28-8.46-.28-20.03,12.3-.06c3.2,0,5.67.74,7.42,2.23,1.75,1.49,2.62,3.6,2.62,6.35,0,1.77-.47,3.41-1.41,4.94-.94,1.52-2.26,2.79-3.95,3.81,2.52,3.65,4.87,6.85,7.05,9.59ZM683.44,444.22l4.23.23c1.28-.41,2.22-1.02,2.82-1.81.6-.79.9-1.81.9-3.05,0-1.35-.4-2.36-1.19-3.02s-2.03-1.02-3.72-1.1l-2.88.11-.17,8.63Z"/>
        <path class="cls-6" d="M727.48,446.45c.96,1.07,1.44,2.49,1.44,4.26,0,2.86-1.19,4.97-3.55,6.32-2.37,1.35-5.89,2.03-10.55,2.03-2.07,0-4.99-.08-8.75-.23l.28-8.46-.28-20.03,11.46-.06c3.16,0,5.63.62,7.42,1.86,1.79,1.24,2.68,3.03,2.68,5.36,0,1.5-.4,2.82-1.19,3.95-.79,1.13-1.92,2.01-3.39,2.65,1.99.49,3.47,1.27,4.43,2.34ZM720.2,453.17c.96-.62,1.44-1.55,1.44-2.79,0-.9-.32-1.62-.96-2.14-.64-.53-1.62-.94-2.93-1.24l-4.91.11-.06,2.6.11,4.23c1.2.11,2.26.17,3.16.17,1.81,0,3.19-.31,4.15-.93ZM719.02,436.04c-.81-.45-2.23-.68-4.26-.68h-1.75l-.11,6.72,4.12.11c1.09-.26,1.9-.69,2.43-1.27.53-.58.79-1.4.79-2.46,0-1.17-.4-1.97-1.21-2.43Z"/>
        <path class="cls-6" d="M757.42,433.56c2.33,2.45,3.5,5.91,3.5,10.38,0,4.89-1.27,8.68-3.81,11.37-2.54,2.69-6.12,4.03-10.75,4.03-4.25,0-7.54-1.25-9.88-3.75-2.33-2.5-3.5-6.03-3.5-10.58,0-4.81,1.26-8.54,3.78-11.17,2.52-2.63,6.09-3.95,10.72-3.95,4.29,0,7.6,1.22,9.93,3.67ZM741.87,437.53c-1,1.26-1.5,3.43-1.5,6.52,0,2.48.22,4.43.65,5.84.43,1.41,1.13,2.42,2.09,3.02.96.6,2.25.9,3.87.9,2.37,0,4.05-.62,5.05-1.86,1-1.24,1.5-3.42,1.5-6.55,0-2.48-.23-4.43-.68-5.84-.45-1.41-1.15-2.42-2.09-3.02-.94-.6-2.24-.9-3.89-.9-2.33,0-4,.63-4.99,1.89Z"/>
        <path class="cls-6" d="M792.07,449.81l.28,9.03h-7.73l-11.4-17.66h-.4l-.06,7.67.23,9.99h-6.43l.28-8.35-.28-20.14h7.67l11.4,17.66h.51l-.23-17.38,6.55-.45-.4,19.64Z"/>
        <path class="cls-6" d="M820.22,453.08l.45.45-.51,5.3h-19.52l.28-8.46-.28-20.03h19.81l.4.56-.45,5.25-7.34-.28h-5.3l-.11,5.76,5.08.06,4.91-.17.39.51-.45,5.36-5.36-.17h-4.68l-.06,2.48.11,3.61h4.97l7.67-.23Z"/>
        <path class="cls-6" d="M305.94,521.25l-.45,5.3h-16.76l.34-8.46-.34-20.03h7.22l-.4,19.35.11,3.33h9.88l.4.51Z"/>
        <path class="cls-6" d="M317.68,517.41l.28,9.14h-7.11l.28-8.46-.28-20.03h7.22l-.4,19.35Z"/>
        <path class="cls-6" d="M346.18,520.8l.45.45-.51,5.3h-19.52l.28-8.46-.28-20.03h19.81l.4.56-.45,5.25-7.34-.28h-5.3l-.11,5.76,5.08.06,4.91-.17.39.51-.45,5.36-5.36-.17h-4.68l-.06,2.48.11,3.61h4.97l7.67-.23ZM332.8,494.9l-1.81-2.82c4.36-3.5,7.77-6.38,10.21-8.63l.73.06,2.71,4.06-.11.73c-.83.53-1.45.9-1.86,1.13-4.7,2.9-7.75,4.74-9.14,5.53l-.73-.06Z"/>
        <path class="cls-6" d="M371.91,520.8l.45.45-.51,5.3h-19.52l.28-8.46-.28-20.03h19.81l.4.56-.45,5.25-7.34-.28h-5.3l-.11,5.76,5.08.06,4.91-.17.39.51-.45,5.36-5.36-.17h-4.68l-.06,2.48.11,3.61h4.97l7.67-.23Z"/>
        <path class="cls-6" d="M410.9,526.55h-7.17l-.79-4.12-.51-1.64-5.76-.06-5.08.11-.4,1.18-.85,4.51h-6.94l9.99-28.5h8.41l9.08,28.5ZM400.91,515.44l-3.22-10.89h-.45l-3.78,10.89,3.67.06,3.78-.06Z"/>
        <path class="cls-6" d="M438.88,512.56l-.06,4.34c.04,3.24-1.03,5.73-3.19,7.48-2.16,1.75-5.26,2.62-9.28,2.62s-6.9-.87-8.97-2.62c-2.07-1.75-3.05-4.24-2.93-7.48l.06-4.46-.17-14.39h7.11l-.34,17.83c-.04,1.84.4,3.2,1.33,4.06.92.87,2.32,1.3,4.2,1.3s3.34-.44,4.26-1.33c.92-.88,1.36-2.23,1.33-4.04l-.28-17.83h7.17l-.23,14.5Z"/>
        <path class="cls-6" d="M480.58,517.52l.28,9.03h-7.73l-11.4-17.66h-.4l-.06,7.67.23,9.99h-6.43l.28-8.35-.28-20.14h7.67l11.4,17.66h.51l-.23-17.38,6.55-.45-.4,19.64Z"/>
        <path class="cls-6" d="M512.92,512.56l-.06,4.34c.04,3.24-1.03,5.73-3.19,7.48-2.16,1.75-5.26,2.62-9.28,2.62s-6.9-.87-8.97-2.62c-2.07-1.75-3.05-4.24-2.93-7.48l.06-4.46-.17-14.39h7.11l-.34,17.83c-.04,1.84.4,3.2,1.33,4.06.92.87,2.32,1.3,4.2,1.3s3.34-.44,4.26-1.33c.92-.88,1.36-2.23,1.33-4.04l-.28-17.83h7.17l-.23,14.5Z"/>
        <path class="cls-6" d="M552.59,526.55h-6.38l-.4-8.63-.96-9.31h-.45l-6.26,15.12h-5.47l-5.59-15.12h-.45l-1.02,8.63-.62,9.31h-6.04l3.05-28.5h8.35l1.13,4.18,4.12,12.08h.45l4.46-12.02,1.24-4.23h8.18l2.65,28.5Z"/>
        <path class="cls-6" d="M578.88,520.8l.45.45-.51,5.3h-19.52l.28-8.46-.28-20.03h19.81l.4.56-.45,5.25-7.34-.28h-5.3l-.11,5.76,5.08.06,4.91-.17.39.51-.45,5.36-5.36-.17h-4.68l-.06,2.48.11,3.61h4.97l7.67-.23ZM565.51,494.9l-1.81-2.82c4.36-3.5,7.77-6.38,10.21-8.63l.73.06,2.71,4.06-.11.73c-.83.53-1.45.9-1.86,1.13-4.7,2.9-7.75,4.74-9.14,5.53l-.73-.06Z"/>
        <path class="cls-6" d="M609.07,524.91l-.06.79c-2.33.71-4.63,1.15-6.88,1.3l-1.02-.68c-2.11-3.65-3.74-6.64-4.91-8.97h-4.34v.06l.28,9.14h-7.11l.28-8.46-.28-20.03,12.3-.06c3.2,0,5.67.74,7.42,2.23,1.75,1.49,2.62,3.6,2.62,6.35,0,1.77-.47,3.41-1.41,4.94-.94,1.52-2.26,2.79-3.95,3.81,2.52,3.65,4.87,6.85,7.05,9.59ZM591.97,511.94l4.23.23c1.28-.41,2.22-1.02,2.82-1.81.6-.79.9-1.81.9-3.05,0-1.35-.4-2.36-1.19-3.02s-2.03-1.02-3.72-1.1l-2.88.11-.17,8.63Z"/>
        <path class="cls-6" d="M621.43,517.41l.28,9.14h-7.11l.28-8.46-.28-20.03h7.22l-.4,19.35Z"/>
        <path class="cls-6" d="M660.7,530.95c-.6,1.02-1.14,1.85-1.61,2.51-.47.66-1.01,1.27-1.61,1.83l-.56.11c-5.27-2.07-10.08-4.87-14.45-8.41-.34.04-.85.06-1.52.06-4.25,0-7.54-1.25-9.88-3.75-2.33-2.5-3.5-6.03-3.5-10.58,0-4.81,1.26-8.54,3.78-11.17,2.52-2.63,6.09-3.95,10.72-3.95,4.29,0,7.6,1.22,9.93,3.67,2.33,2.45,3.5,5.91,3.5,10.38,0,3.39-.61,6.25-1.83,8.61-1.22,2.35-3,4.09-5.33,5.22,3.72,2.11,7.75,3.71,12.08,4.8l.28.68ZM635.62,517.61c.43,1.41,1.13,2.42,2.09,3.02.96.6,2.25.9,3.87.9,2.37,0,4.05-.62,5.05-1.86,1-1.24,1.5-3.42,1.5-6.55,0-2.48-.23-4.43-.68-5.84-.45-1.41-1.15-2.42-2.09-3.02-.94-.6-2.24-.9-3.89-.9-2.33,0-4,.63-4.99,1.89-1,1.26-1.5,3.43-1.5,6.52,0,2.48.22,4.43.65,5.84Z"/>
        <path class="cls-6" d="M685.53,512.56l-.06,4.34c.04,3.24-1.03,5.73-3.19,7.48-2.16,1.75-5.26,2.62-9.28,2.62s-6.9-.87-8.97-2.62c-2.07-1.75-3.05-4.24-2.93-7.48l.06-4.46-.17-14.39h7.11l-.34,17.83c-.04,1.84.4,3.2,1.33,4.06.92.87,2.32,1.3,4.2,1.3s3.34-.44,4.26-1.33c.92-.88,1.36-2.23,1.33-4.04l-.28-17.83h7.17l-.23,14.5Z"/>
        <path class="cls-6" d="M712.78,520.8l.45.45-.51,5.3h-19.52l.28-8.46-.28-20.03h19.81l.4.56-.45,5.25-7.34-.28h-5.3l-.11,5.76,5.08.06,4.91-.17.39.51-.45,5.36-5.36-.17h-4.68l-.06,2.48.11,3.61h4.97l7.67-.23Z"/>
        <path class="cls-6" d="M747.04,520.8l.45.45-.51,5.3h-19.52l.28-8.46-.28-20.03h19.81l.4.56-.45,5.25-7.34-.28h-5.3l-.11,5.76,5.08.06,4.91-.17.39.51-.45,5.36-5.36-.17h-4.68l-.06,2.48.11,3.61h4.97l7.67-.23Z"/>
        <path class="cls-6" d="M771.07,499.07l-1.07,6.32-1.02.28c-1.2-.9-2.37-1.58-3.5-2.03-1.13-.45-2.16-.68-3.1-.68-1.05,0-1.88.25-2.48.76-.6.51-.9,1.12-.9,1.83,0,.79.38,1.44,1.13,1.95.75.51,1.94,1.1,3.55,1.78,1.69.72,3.08,1.37,4.15,1.98,1.07.6,1.99,1.44,2.76,2.51.77,1.07,1.16,2.42,1.16,4.04s-.42,3.13-1.27,4.54c-.85,1.41-2.13,2.55-3.84,3.41-1.71.87-3.83,1.3-6.35,1.3-1.35,0-2.83-.14-4.43-.42-1.6-.28-3.15-.72-4.66-1.33l.96-6.66.73-.51c1.24,1.13,2.63,2.03,4.18,2.71,1.54.68,2.92,1.02,4.12,1.02,1.05,0,1.91-.26,2.57-.79.66-.53.99-1.18.99-1.97s-.39-1.5-1.16-2c-.77-.51-1.97-1.08-3.58-1.72-1.69-.71-3.08-1.38-4.15-2-1.07-.62-1.99-1.48-2.77-2.57-.77-1.09-1.16-2.45-1.16-4.06s.46-3.23,1.38-4.63c.92-1.39,2.24-2.48,3.95-3.27,1.71-.79,3.71-1.19,6.01-1.19,2.71,0,5.3.47,7.79,1.41Z"/>
        <path class="cls-6" d="M797.31,498.62l-.4,5.42-5.76-.4h-1.64l-.17,13.77.23,9.14h-7.05l.28-8.46-.11-14.45h-1.64l-5.87.4-.45-.56.4-5.42h21.78l.4.56Z"/>
        <path class="cls-6" d="M291.13,568c1.73,1.52,2.6,3.72,2.6,6.57,0,3.31-1.15,5.96-3.44,7.96-2.3,1.99-5.36,2.99-9.2,2.99h-2.88l.28,8.75h-7.11l.28-8.46-.28-20.03,12.3-.06c3.23,0,5.72.76,7.45,2.29ZM285.32,578.58c.64-.83.96-1.94.96-3.33s-.4-2.5-1.21-3.22c-.81-.71-2.06-1.11-3.75-1.19l-2.82.11-.17,9.31,4.06.17c1.32-.41,2.29-1.03,2.93-1.86Z"/>
        <path class="cls-6" d="M320.53,594.27h-7.17l-.79-4.12-.51-1.64-5.76-.06-5.08.11-.4,1.18-.85,4.51h-6.94l9.99-28.5h8.41l9.08,28.5ZM310.54,583.15l-3.22-10.89h-.45l-3.78,10.89,3.67.06,3.78-.06Z"/>
        <path class="cls-6" d="M343.95,566.78l-1.07,6.32-1.02.28c-1.2-.9-2.37-1.58-3.5-2.03-1.13-.45-2.16-.68-3.1-.68-1.05,0-1.88.25-2.48.76-.6.51-.9,1.12-.9,1.83,0,.79.38,1.44,1.13,1.95.75.51,1.94,1.1,3.55,1.78,1.69.72,3.08,1.37,4.15,1.98,1.07.6,1.99,1.44,2.76,2.51.77,1.07,1.16,2.42,1.16,4.04s-.42,3.13-1.27,4.54c-.85,1.41-2.13,2.55-3.84,3.41-1.71.87-3.83,1.3-6.35,1.3-1.35,0-2.83-.14-4.43-.42-1.6-.28-3.15-.72-4.66-1.33l.96-6.66.73-.51c1.24,1.13,2.63,2.03,4.18,2.71,1.54.68,2.92,1.02,4.12,1.02,1.05,0,1.91-.26,2.57-.79.66-.53.99-1.18.99-1.97s-.39-1.5-1.16-2c-.77-.51-1.97-1.08-3.58-1.72-1.69-.71-3.08-1.38-4.15-2-1.07-.62-1.99-1.48-2.77-2.57-.77-1.09-1.16-2.45-1.16-4.06s.46-3.23,1.38-4.63c.92-1.39,2.24-2.48,3.95-3.27,1.71-.79,3.71-1.19,6.01-1.19,2.71,0,5.3.47,7.79,1.41Z"/>
        <path class="cls-6" d="M369.06,566.78l-1.07,6.32-1.02.28c-1.2-.9-2.37-1.58-3.5-2.03-1.13-.45-2.16-.68-3.1-.68-1.05,0-1.88.25-2.48.76-.6.51-.9,1.12-.9,1.83,0,.79.38,1.44,1.13,1.95.75.51,1.94,1.1,3.55,1.78,1.69.72,3.08,1.37,4.15,1.98,1.07.6,1.99,1.44,2.76,2.51.77,1.07,1.16,2.42,1.16,4.04s-.42,3.13-1.27,4.54c-.85,1.41-2.13,2.55-3.84,3.41-1.71.87-3.83,1.3-6.35,1.3-1.35,0-2.83-.14-4.43-.42-1.6-.28-3.15-.72-4.66-1.33l.96-6.66.73-.51c1.24,1.13,2.63,2.03,4.18,2.71,1.54.68,2.92,1.02,4.12,1.02,1.05,0,1.91-.26,2.57-.79.66-.53.99-1.18.99-1.97s-.39-1.5-1.16-2c-.77-.51-1.97-1.08-3.58-1.72-1.69-.71-3.08-1.38-4.15-2-1.07-.62-1.99-1.48-2.77-2.57-.77-1.09-1.16-2.45-1.16-4.06s.46-3.23,1.38-4.63c.92-1.39,2.24-2.48,3.95-3.27,1.71-.79,3.71-1.19,6.01-1.19,2.71,0,5.3.47,7.79,1.41Z"/>
        <path class="cls-6" d="M395.86,588.51l.45.45-.51,5.3h-19.52l.28-8.46-.28-20.03h19.81l.4.56-.45,5.25-7.34-.28h-5.3l-.11,5.76,5.08.06,4.91-.17.39.51-.45,5.36-5.36-.17h-4.68l-.06,2.48.11,3.61h4.97l7.67-.23ZM382.49,562.61l-1.81-2.82c4.36-3.5,7.77-6.38,10.21-8.63l.73.06,2.71,4.06-.11.73c-.83.53-1.45.9-1.86,1.13-4.7,2.9-7.75,4.74-9.14,5.53l-.73-.06Z"/>
        <path class="cls-6" d="M421.59,588.51l.45.45-.51,5.3h-19.52l.28-8.46-.28-20.03h19.81l.4.56-.45,5.25-7.34-.28h-5.3l-.11,5.76,5.08.06,4.91-.17.39.51-.45,5.36-5.36-.17h-4.68l-.06,2.48.11,3.61h4.97l7.67-.23Z"/>
        <path class="cls-6" d="M458.92,569.01c2.35,2.31,3.53,5.62,3.53,9.9,0,5.04-1.33,8.92-3.98,11.62-2.65,2.71-6.46,4.06-11.43,4.06-2.9,0-6.49-.11-10.78-.34l.28-8.46-.28-20.03,12.53-.23c4.4,0,7.78,1.16,10.13,3.47ZM455.11,580.61c0-3.35-.55-5.75-1.64-7.2-1.09-1.45-2.84-2.17-5.25-2.17-1.77,0-3.39.08-4.85.23l-.28,13.66.11,3.67c.9.11,1.82.21,2.77.28.94.08,1.73.11,2.37.11,4.51,0,6.77-2.86,6.77-8.58Z"/>
        <path class="cls-6" d="M487.73,588.51l.45.45-.51,5.3h-19.52l.28-8.46-.28-20.03h19.81l.4.56-.45,5.25-7.34-.28h-5.3l-.11,5.76,5.08.06,4.91-.17.39.51-.45,5.36-5.36-.17h-4.68l-.06,2.48.11,3.61h4.97l7.67-.23Z"/>
        <path class="cls-6" d="M518.31,567.26c1.65,1.22,2.48,2.91,2.48,5.05,0,1.5-.5,3.17-1.5,4.99-1,1.83-2.61,3.92-4.82,6.29l-4.23,4.68.11.23h7.62l5.08-.45.45.51-.9,6.04-6.83-.34h-12.81l-2.09.11-.4-.28v-4.57l7.62-7.5c1.81-1.84,3.14-3.37,4.01-4.57.86-1.2,1.3-2.26,1.3-3.16,0-.75-.28-1.35-.85-1.81s-1.35-.68-2.37-.68c-1.2,0-2.46.3-3.78.9-1.32.6-2.54,1.41-3.67,2.43h-.85l-1.24-5.81c3.87-2.6,7.64-3.89,11.29-3.89,2.6,0,4.72.61,6.38,1.83Z"/>
        <path class="cls-6" d="M535.46,591.67c0,3.27-2.28,6.53-6.83,9.76l-2.43-2.14-.06-.56c2.07-1.73,3.1-3.57,3.1-5.53,0-1.28-.6-2.41-1.81-3.39l.06-.62c1.73-1.05,3.54-1.84,5.42-2.37,1.69,1.35,2.54,2.97,2.54,4.85Z"/>
        <path class="cls-6" d="M560.35,565.88l-.79,5.81-.56.56-5.14-.56h-6.55l-.17,6.32,3.5.73c3.27.68,5.63,1.74,7.08,3.19,1.45,1.45,2.17,3.38,2.17,5.78s-.6,4.47-1.81,6.29c-1.2,1.82-2.91,3.24-5.11,4.23-2.2,1-4.71,1.5-7.53,1.5-1.96,0-4.03-.23-6.21-.68l-.4-5.87.51-.51c2.48.87,4.72,1.3,6.71,1.3s3.71-.48,4.91-1.44c1.2-.96,1.81-2.23,1.81-3.81,0-1.28-.43-2.29-1.3-3.02-.87-.73-2.28-1.27-4.23-1.61l-5.42-.96-.51-.62.28-16.08.9-.85,3.27.11h8.24l5.87-.28.45.45Z"/>
        <path class="cls-6" d="M587.88,560.13c1.43,1.69,2.14,4.14,2.14,7.34,0,3.42-.78,6.05-2.34,7.87-1.56,1.83-3.83,2.74-6.8,2.74-2.75,0-4.84-.85-6.29-2.54-1.45-1.69-2.17-4.14-2.17-7.34,0-3.42.8-6.05,2.4-7.87,1.6-1.82,3.88-2.74,6.86-2.74,2.71,0,4.78.85,6.21,2.54ZM578.12,563.79c-.64.87-.96,2.2-.96,4.01,0,1.96.33,3.4.99,4.32.66.92,1.68,1.38,3.08,1.38s2.47-.44,3.13-1.33c.66-.88.99-2.23.99-4.03,0-1.96-.34-3.39-1.02-4.29-.68-.9-1.73-1.35-3.16-1.35s-2.41.43-3.05,1.3ZM608.25,557.42l.45,1.07-26.3,40.97-3.22-1.92-.34-.79,26.35-41.19,3.05,1.86ZM614.91,576.63c1.43,1.71,2.14,4.15,2.14,7.31,0,3.46-.78,6.1-2.34,7.93-1.56,1.83-3.83,2.74-6.8,2.74-2.75,0-4.84-.85-6.29-2.54-1.45-1.69-2.17-4.14-2.17-7.33,0-3.46.8-6.1,2.4-7.93,1.6-1.82,3.88-2.74,6.86-2.74,2.71,0,4.78.86,6.21,2.57ZM605.15,580.3c-.64.85-.96,2.19-.96,4.03s.33,3.35.99,4.29c.66.94,1.68,1.41,3.08,1.41s2.47-.44,3.13-1.33c.66-.88.99-2.25.99-4.09s-.34-3.33-1.02-4.23c-.68-.9-1.73-1.35-3.16-1.35s-2.41.42-3.05,1.27Z"/>
        <path class="cls-6" d="M651.08,588.51l.45.45-.51,5.3h-19.52l.28-8.46-.28-20.03h19.81l.4.56-.45,5.25-7.34-.28h-5.3l-.11,5.76,5.08.06,4.91-.17.39.51-.45,5.36-5.36-.17h-4.68l-.06,2.48.11,3.61h4.97l7.67-.23Z"/>
        <path class="cls-6" d="M682.74,585.24l.28,9.03h-7.73l-11.4-17.66h-.4l-.06,7.67.23,9.99h-6.43l.28-8.35-.28-20.14h7.67l11.4,17.66h.51l-.23-17.38,6.55-.45-.4,19.64Z"/>
        <path class="cls-6" d="M715.75,567.26c1.65,1.22,2.48,2.91,2.48,5.05,0,1.5-.5,3.17-1.5,4.99-1,1.83-2.61,3.92-4.82,6.29l-4.23,4.68.11.23h7.62l5.08-.45.45.51-.9,6.04-6.83-.34h-12.81l-2.09.11-.4-.28v-4.57l7.62-7.5c1.81-1.84,3.14-3.37,4.01-4.57.86-1.2,1.3-2.26,1.3-3.16,0-.75-.28-1.35-.85-1.81s-1.35-.68-2.37-.68c-1.2,0-2.46.3-3.78.9-1.32.6-2.54,1.41-3.67,2.43h-.85l-1.24-5.81c3.87-2.6,7.64-3.89,11.29-3.89,2.6,0,4.72.61,6.38,1.83Z"/>
        <path class="cls-6" d="M746.41,569.04c2.09,2.48,3.13,6,3.13,10.55,0,4.82-1.13,8.55-3.39,11.2-2.26,2.65-5.46,3.98-9.59,3.98-3.84,0-6.81-1.24-8.92-3.72-2.11-2.48-3.16-5.96-3.16-10.44,0-4.85,1.14-8.61,3.41-11.29,2.28-2.67,5.48-4.01,9.62-4.01,3.84,0,6.8,1.24,8.89,3.72ZM731.94,574.15c-1.09,1.26-1.64,3.25-1.64,5.95s.54,4.78,1.64,6.09c1.09,1.32,2.78,1.97,5.08,1.97s3.94-.63,5.05-1.89c1.11-1.26,1.66-3.21,1.66-5.84,0-2.78-.56-4.84-1.69-6.18-1.13-1.33-2.82-2-5.08-2s-3.93.63-5.02,1.89Z"/>
        <path class="cls-6" d="M771.72,567.26c1.65,1.22,2.48,2.91,2.48,5.05,0,1.5-.5,3.17-1.5,4.99-1,1.83-2.61,3.92-4.82,6.29l-4.23,4.68.11.23h7.62l5.08-.45.45.51-.9,6.04-6.83-.34h-12.81l-2.09.11-.4-.28v-4.57l7.62-7.5c1.81-1.84,3.14-3.37,4.01-4.57.86-1.2,1.3-2.26,1.3-3.16,0-.75-.28-1.35-.85-1.81s-1.35-.68-2.37-.68c-1.2,0-2.46.3-3.78.9-1.32.6-2.54,1.41-3.67,2.43h-.85l-1.24-5.81c3.87-2.6,7.64-3.89,11.29-3.89,2.6,0,4.72.61,6.38,1.83Z"/>
        <path class="cls-6" d="M802.39,569.04c2.09,2.48,3.13,6,3.13,10.55,0,4.82-1.13,8.55-3.39,11.2-2.26,2.65-5.46,3.98-9.59,3.98-3.84,0-6.81-1.24-8.92-3.72-2.11-2.48-3.16-5.96-3.16-10.44,0-4.85,1.14-8.61,3.41-11.29,2.28-2.67,5.48-4.01,9.62-4.01,3.84,0,6.8,1.24,8.89,3.72ZM787.92,574.15c-1.09,1.26-1.64,3.25-1.64,5.95s.54,4.78,1.64,6.09c1.09,1.32,2.78,1.97,5.08,1.97s3.94-.63,5.05-1.89c1.11-1.26,1.66-3.21,1.66-5.84,0-2.78-.56-4.84-1.69-6.18-1.13-1.33-2.82-2-5.08-2s-3.93.63-5.02,1.89Z"/>
        <path class="cls-6" d="M387.43,661.98h-7.17l-.79-4.12-.51-1.64-5.76-.06-5.08.11-.4,1.18-.85,4.51h-6.94l9.99-28.5h8.41l9.08,28.5ZM367.56,623.72l-.11-.73,2.71-4.06.68-.06c2.75,2.52,6.15,5.4,10.21,8.63l-1.81,2.82-.68.06c-2.93-1.69-6.6-3.91-11-6.66ZM377.44,650.86l-3.22-10.89h-.45l-3.78,10.89,3.67.06,3.78-.06Z"/>
        <path class="cls-6" d="M423.88,658.99l-4.68-.11.28,7.62-.4.51-5.87.39-.4-.45.17-8.13h-9.03l-4.91.17-.51-.68v-4.74l13.82-20.14h6.88l-.17,19.64h4.68l.45.68-.34,5.25ZM404.97,653.06h8.13v-11.12h-.51l-7.62,11.12Z"/>
        <path class="cls-6" d="M436.35,659.38c0,3.27-2.28,6.53-6.83,9.76l-2.43-2.14-.06-.56c2.07-1.73,3.1-3.57,3.1-5.53,0-1.28-.6-2.41-1.81-3.39l.06-.62c1.73-1.05,3.54-1.84,5.42-2.37,1.69,1.35,2.54,2.97,2.54,4.85Z"/>
        <path class="cls-6" d="M465.18,658.99l-4.68-.11.28,7.62-.4.51-5.87.39-.4-.45.17-8.13h-9.03l-4.91.17-.51-.68v-4.74l13.82-20.14h6.88l-.17,19.64h4.68l.45.68-.34,5.25ZM446.28,653.06h8.13v-11.12h-.51l-7.62,11.12Z"/>
        <path class="cls-6" d="M492.77,627.84c1.43,1.69,2.14,4.14,2.14,7.34,0,3.42-.78,6.05-2.34,7.87-1.56,1.83-3.83,2.74-6.8,2.74-2.75,0-4.84-.85-6.29-2.54-1.45-1.69-2.17-4.14-2.17-7.34,0-3.42.8-6.05,2.4-7.87,1.6-1.82,3.88-2.74,6.86-2.74,2.71,0,4.78.85,6.21,2.54ZM483.01,631.51c-.64.87-.96,2.2-.96,4.01,0,1.96.33,3.4.99,4.32.66.92,1.68,1.38,3.08,1.38s2.47-.44,3.13-1.33c.66-.88.99-2.23.99-4.03,0-1.96-.34-3.39-1.02-4.29-.68-.9-1.73-1.35-3.16-1.35s-2.41.43-3.05,1.3ZM513.14,625.13l.45,1.07-26.3,40.97-3.22-1.92-.34-.79,26.35-41.19,3.05,1.86ZM519.8,644.35c1.43,1.71,2.14,4.15,2.14,7.31,0,3.46-.78,6.1-2.34,7.93-1.56,1.83-3.83,2.74-6.8,2.74-2.75,0-4.84-.85-6.29-2.54-1.45-1.69-2.17-4.14-2.17-7.33,0-3.46.8-6.1,2.4-7.93,1.6-1.82,3.88-2.74,6.86-2.74,2.71,0,4.78.86,6.21,2.57ZM510.04,648.01c-.64.85-.96,2.19-.96,4.03s.33,3.35.99,4.29c.66.94,1.68,1.41,3.08,1.41s2.47-.44,3.13-1.33c.66-.88.99-2.25.99-4.09s-.34-3.33-1.02-4.23c-.68-.9-1.73-1.35-3.16-1.35s-2.41.42-3.05,1.27Z"/>
        <path class="cls-6" d="M555.97,656.22l.45.45-.51,5.3h-19.52l.28-8.46-.28-20.03h19.81l.4.56-.45,5.25-7.34-.28h-5.3l-.11,5.76,5.08.06,4.91-.17.39.51-.45,5.36-5.36-.17h-4.68l-.06,2.48.11,3.61h4.97l7.67-.23Z"/>
        <path class="cls-6" d="M587.63,652.95l.28,9.03h-7.73l-11.4-17.66h-.4l-.06,7.67.23,9.99h-6.43l.28-8.35-.28-20.14h7.67l11.4,17.66h.51l-.23-17.38,6.55-.45-.4,19.64Z"/>
        <path class="cls-6" d="M620.64,634.98c1.65,1.22,2.48,2.91,2.48,5.05,0,1.5-.5,3.17-1.5,4.99-1,1.83-2.61,3.92-4.82,6.29l-4.23,4.68.11.23h7.62l5.08-.45.45.51-.9,6.04-6.83-.34h-12.81l-2.09.11-.4-.28v-4.57l7.62-7.5c1.81-1.84,3.14-3.37,4.01-4.57.86-1.2,1.3-2.26,1.3-3.16,0-.75-.28-1.35-.85-1.81s-1.35-.68-2.37-.68c-1.2,0-2.46.3-3.78.9-1.32.6-2.54,1.41-3.67,2.43h-.85l-1.24-5.81c3.87-2.6,7.64-3.89,11.29-3.89,2.6,0,4.72.61,6.38,1.83Z"/>
        <path class="cls-6" d="M651.31,636.76c2.09,2.48,3.13,6,3.13,10.55,0,4.82-1.13,8.55-3.39,11.2-2.26,2.65-5.46,3.98-9.59,3.98-3.84,0-6.81-1.24-8.92-3.72-2.11-2.48-3.16-5.96-3.16-10.44,0-4.85,1.14-8.61,3.41-11.29,2.28-2.67,5.48-4.01,9.62-4.01,3.84,0,6.8,1.24,8.89,3.72ZM636.83,641.86c-1.09,1.26-1.64,3.25-1.64,5.95s.54,4.78,1.64,6.09c1.09,1.32,2.78,1.97,5.08,1.97s3.94-.63,5.05-1.89c1.11-1.26,1.66-3.21,1.66-5.84,0-2.78-.56-4.84-1.69-6.18-1.13-1.33-2.82-2-5.08-2s-3.93.63-5.02,1.89Z"/>
        <path class="cls-6" d="M676.61,634.98c1.65,1.22,2.48,2.91,2.48,5.05,0,1.5-.5,3.17-1.5,4.99-1,1.83-2.61,3.92-4.82,6.29l-4.23,4.68.11.23h7.62l5.08-.45.45.51-.9,6.04-6.83-.34h-12.81l-2.09.11-.4-.28v-4.57l7.62-7.5c1.81-1.84,3.14-3.37,4.01-4.57.86-1.2,1.3-2.26,1.3-3.16,0-.75-.28-1.35-.85-1.81s-1.35-.68-2.37-.68c-1.2,0-2.46.3-3.78.9-1.32.6-2.54,1.41-3.67,2.43h-.85l-1.24-5.81c3.87-2.6,7.64-3.89,11.29-3.89,2.6,0,4.72.61,6.38,1.83Z"/>
        <path class="cls-6" d="M709.68,658.99l-4.68-.11.28,7.62-.4.51-5.87.39-.4-.45.17-8.13h-9.03l-4.91.17-.51-.68v-4.74l13.82-20.14h6.88l-.17,19.64h4.68l.45.68-.34,5.25ZM690.78,653.06h8.13v-11.12h-.51l-7.62,11.12Z"/>
        <path class="cls-6" d="M720.88,655.38c.66.68.99,1.62.99,2.82,0,1.28-.36,2.29-1.07,3.05-.72.75-1.69,1.13-2.93,1.13s-2.19-.34-2.85-1.02c-.66-.68-.99-1.64-.99-2.88s.37-2.24,1.1-2.99c.73-.75,1.74-1.13,3.02-1.13,1.17,0,2.08.34,2.74,1.02Z"/>
      </g>
      <g>
        <path class="cls-5" d="M643.21,1022.44c-17.16,17.77-37.37,28.94-60.23,28.71-20.73-.23-40.63-8.96-58.79-23.09l-.08-.08c-69.8-54.23-112.56-187.83-70.25-219.27,44.43-33.04,79.29,44.89,129.12,46.79,49.9,1.97,75.95-81.27,113.32-53.24,28.94,21.65,5.62,159.42-53.09,220.18Z"/>
        <path class="cls-1" d="M643.29,1022.28l-.08.15c-17.16,17.77-37.37,28.94-60.23,28.71-20.73-.23-40.63-8.96-58.79-23.09l-.08-.08s28.56-44.73,59.09-44.73,60.08,39.04,60.08,39.04Z"/>
      </g>
    </g>
  </g>
</svg>