<?xml version="1.0" encoding="UTF-8"?>
<svg id="Calque_2" data-name="Calque 2" xmlns="http://www.w3.org/2000/svg" viewBox="0 0 59.13 80.15">
  <defs>
    <style>
      .cls-1 {
        fill: none;
      }

      .cls-1, .cls-2, .cls-3, .cls-4, .cls-5, .cls-6, .cls-7 {
        stroke: #1d1d1b;
      }

      .cls-1, .cls-3, .cls-6 {
        stroke-linecap: round;
        stroke-linejoin: round;
      }

      .cls-8 {
        fill: #1d1d1b;
      }

      .cls-2 {
        fill: #fece5b;
      }

      .cls-2, .cls-4, .cls-5, .cls-7 {
        stroke-miterlimit: 10;
      }

      .cls-9, .cls-5 {
        fill: #f7f6f6;
      }

      .cls-3, .cls-4 {
        fill: #fff;
      }

      .cls-6 {
        fill: #e30613;
      }

      .cls-7 {
        fill: #e9c711;
      }
    </style>
  </defs>
  <g id="persos">
    <g>
      <path class="cls-2" d="M52.63,24.19c0,3.64-.82,7.1-2.3,10.18-.24.51-.49,1-.77,1.48-.47.84-.99,1.64-1.57,2.41-.29.39-.59.78-.9,1.15-.9,1.08-1.9,2.07-2.98,2.97-.56.47-1.14.91-1.75,1.33-1.32.92-2.75,1.7-4.26,2.32l-.36.15c-2.72,1.1-5.69,1.7-8.8,1.7-2.69,0-5.28-.45-7.69-1.28-.24-.08-.48-.17-.72-.26-.46-.17-.9-.36-1.34-.56-1.02-.46-2.01-.99-2.94-1.59-.57-.36-1.12-.74-1.65-1.15-1.15-.87-2.21-1.84-3.16-2.91-.17-.17-.32-.34-.47-.52-.78-.9-1.49-1.86-2.13-2.87-.16-.25-.31-.5-.46-.76-1.99-3.47-3.13-7.5-3.13-11.79C5.25,11.11,15.86.5,28.94.5s23.69,10.61,23.69,23.69Z"/>
      <g>
        <path class="cls-4" d="M20.98,31.18c3.99.13,4.37,4.09,8.46,3.83s2.65-2.78,6.88-3.18,4.74,9.05-6.88,9.18-12.45-9.96-8.46-9.83Z"/>
        <line class="cls-4" x1="24.8" y1="32.91" x2="22.15" y2="39.2"/>
        <line class="cls-4" x1="29.44" y1="35.01" x2="29.44" y2="41.01"/>
        <line class="cls-4" x1="33.82" y1="32.59" x2="37.22" y2="38.57"/>
      </g>
      <g>
        <path class="cls-1" d="M14.99,11.38s4.45-5.56,11.19-2.62"/>
        <path class="cls-1" d="M33.3,8.05s6.55-2.51,10.26,3.68"/>
      </g>
      <g>
        <path class="cls-6" d="M32.79,49.67c-1.26-.08-2.49-.71-2.49-.71h-.01c.32-.25.52-.64.52-1.08,0-.27-.08-.53-.22-.74,0,0,2.56-1.36,2.79-.38.24.98.66,3-.59,2.91Z"/>
        <path class="cls-6" d="M30.81,47.88c0,.44-.2.83-.52,1.07-.23.2-.54.32-.87.32-.47,0-.89-.23-1.14-.59-.16-.23-.25-.5-.25-.8,0-.34.12-.65.35-.89.23-.3.61-.49,1.04-.49.49,0,.93.25,1.17.64.14.21.22.47.22.74Z"/>
        <path class="cls-6" d="M28.03,47.88c0,.3.09.57.25.8,0,0-2.11,1.31-2.51.99-.41-.32-.64-2.1-.17-2.9.47-.8,2.77.21,2.77.21h0c-.23.25-.35.56-.35.9Z"/>
      </g>
      <g>
        <g>
          <ellipse class="cls-5" cx="21.82" cy="18.48" rx="4.29" ry="7.68"/>
          <path class="cls-8" d="M24.37,18.49c0,.47-.04.93-.12,1.35-.32,1.85-1.29,3.21-2.43,3.21-1.41,0-2.55-2.04-2.55-4.56s1.14-4.57,2.55-4.57c1.19,0,2.19,1.47,2.47,3.46.05.35.07.72.07,1.11Z"/>
          <path class="cls-9" d="M24.37,18.49c0,.47-.04.93-.12,1.35l-2.43-1.35,2.47-1.11c.05.35.07.72.07,1.11Z"/>
        </g>
        <g>
          <ellipse class="cls-5" cx="37.16" cy="18.49" rx="4.29" ry="7.68"/>
          <path class="cls-8" d="M39.71,18.49c0,.47-.04.93-.12,1.35-.32,1.85-1.29,3.21-2.43,3.21-1.41,0-2.55-2.04-2.55-4.56s1.14-4.57,2.55-4.57c1.19,0,2.19,1.47,2.47,3.46.05.35.07.72.07,1.11Z"/>
          <path class="cls-9" d="M39.71,18.49c0,.47-.04.93-.12,1.35l-2.43-1.35,2.47-1.11c.05.35.07.72.07,1.11Z"/>
        </g>
      </g>
      <g>
        <path class="cls-2" d="M20.87,75.99s-11.1.17-11.32,0c.65-5.28,6.7-4.26,6.7-4.26v-27.54c.93.6,1.92,1.13,2.94,1.59.44.2.88.39,1.34.56l.34,29.65Z"/>
        <path class="cls-3" d="M22.5,76.93s-11.9,4.29-21.96.38c-.09-1.08-.05-2.14.1-3.15,0,0,8.19,4.74,21.8-.27-.14,2.39.05,3.04.05,3.04Z"/>
        <path class="cls-7" d="M22.45,73.89c-13.61,5.01-21.8.27-21.8.27.51-3.44,2.45-6.21,6.16-6.62,4.81-.5,6.7.38,6.7.38,0,0-.29-3.21,4.22-3.06,3.27.1,5.08,3.06,4.72,9.03Z"/>
        <path class="cls-1" d="M13.5,67.92s3.27,1.09,3.42,2.84"/>
      </g>
      <g>
        <path class="cls-2" d="M49.07,74.25c-.22.17-11.32,0-11.32,0l.35-28.26c1.51-.62,2.94-1.4,4.26-2.32v26.32s6.05-1.02,6.71,4.26Z"/>
        <path class="cls-3" d="M36.62,77.63s11.9,4.29,21.96.38c.09-1.08.05-2.14-.1-3.15,0,0-8.19,4.74-21.8-.27.14,2.39-.05,3.04-.05,3.04Z"/>
        <path class="cls-7" d="M36.68,74.58c13.61,5.01,21.8.27,21.8.27-.51-3.44-2.45-6.21-6.16-6.62-4.81-.5-6.7.38-6.7.38,0,0,.29-3.21-4.22-3.06-3.27.1-5.08,3.06-4.72,9.03Z"/>
        <path class="cls-1" d="M45.62,68.61s-3.27,1.09-3.42,2.84"/>
      </g>
      <g>
        <path class="cls-2" d="M9.81,43.86c-.35,2.26-.2,3.76-.01,4.61-.63-.11-1.12-.05-1.12-.05,0,0-1.55.02-2.29.56-.4-2.8-.58-8.79,2.45-12.24.64,1.01,1.35,1.97,2.13,2.87.15.18.3.35.47.52-.6.6-1.32,1.72-1.63,3.73Z"/>
        <path class="cls-3" d="M16.25,52.76v5.66l-.26.36c-.3.05-.51.04-.57.04h-.01s-.18,2.87-3.17,2.85c-2.98-.01-7.36-3.71-6.7-8.31-.63-2.12-.16-3.92.67-4.24.06-.05.12-.1.18-.14.74-.54,2.29-.56,2.29-.56,0,0,.49-.06,1.12.05.84.15,1.92.59,2.39,1.87.49,1.35,2.39,1.91,3.8,2.14l.26.28Z"/>
        <path class="cls-1" d="M15.42,58.82s-2.78-1.25-2.91-2.49"/>
        <path class="cls-1" d="M12.2,50.34s-2.27.22-2.73.53"/>
      </g>
      <g>
        <path class="cls-2" d="M52.33,48.44c-.74-.54-2.29-.56-2.29-.56,0,0-.49-.06-1.12.05.19-.85.34-2.35-.01-4.61-.35-2.23-1.19-3.36-1.82-3.91.31-.37.61-.76.9-1.15.58-.77,1.1-1.57,1.57-2.41,3.36,3.4,3.19,9.69,2.77,12.59Z"/>
        <path class="cls-3" d="M53.18,52.82c.66,4.6-3.72,8.3-6.7,8.31-2.99.02-3.17-2.85-3.17-2.85,0,0-.37.03-.91-.11l-.04-.07v-6.1c1.43-.19,3.63-.73,4.17-2.2.47-1.28,1.55-1.72,2.39-1.87.63-.11,1.12-.05,1.12-.05,0,0,1.55.02,2.29.56.06.04.12.09.18.14.83.32,1.3,2.12.67,4.24Z"/>
        <path class="cls-1" d="M43.3,58.27s2.78-1.25,2.91-2.49"/>
        <path class="cls-1" d="M46.52,49.8s2.27.22,2.73.53"/>
      </g>
    </g>
  </g>
</svg>